<svg width="116" height="115" viewBox="0 0 116 115" fill="none" xmlns="http://www.w3.org/2000/svg">
<path d="M51.4472 0.287102C22.1196 3.82704 0.191406 28.3004 0.191406 57.5001C0.191406 79.4477 12.6971 99.367 32.6599 109.221C37.824 111.766 43.7203 113.565 50.0984 114.56C53.2971 115.057 63.0858 115.057 66.2844 114.56C79.1947 112.551 90.1011 107.174 99.0419 98.3528C107.655 89.857 113.166 79.3329 115.44 66.9718C116.018 63.7954 116.191 53.7688 115.71 50.1906C114.13 38.2696 109.255 27.822 101.084 18.7522C100.025 17.5849 98.618 16.1498 97.9436 15.5758L96.7296 14.5042V15.7289C96.7296 18.5417 95.6891 20.9335 93.531 23.0958C92.529 24.1099 91.7775 24.6648 90.7369 25.1623C89.9662 25.5259 89.2147 25.832 89.0798 25.832C88.9449 25.832 88.8293 25.8894 88.8293 25.9468C88.8293 26.0042 89.5615 26.8653 90.4672 27.8603C95.7662 33.6964 99.0997 39.8578 100.95 47.2821C101.778 50.6116 102.125 53.6157 102.125 57.5001C102.125 64.5034 100.757 70.4161 97.6738 76.6923L96.3442 79.4094V86.872V94.3345H94.822C92.0858 94.3345 88.7715 93.55 86.3629 92.3445L85.3416 91.8279L84.6286 92.3828C81.6805 94.6981 76.1117 97.6066 72.1615 98.9077C52.43 105.433 31.0991 97.5109 20.3469 79.6773C17.2831 74.5874 15.3755 69.0383 14.5469 62.8961C14.2193 60.2938 14.1615 55.223 14.4698 52.7164C16.2233 37.5616 25.5881 24.5691 39.4618 17.9676C40.5602 17.451 42.7376 16.5899 44.2791 16.0733C53.7788 12.8969 63.8373 13.0309 73.2791 16.456C74.4353 16.877 75.3987 17.2214 75.4565 17.2214C75.4951 17.2214 75.5336 16.6282 75.5336 15.8819C75.5336 14.0833 75.8227 12.8012 76.632 11.0982C77.5761 9.12737 79.5031 7.23303 81.5648 6.21888L83.0871 5.47263L82.4127 5.1282C78.1542 2.96597 70.0612 0.803741 63.9914 0.191428C61.313 -0.0764585 53.9522 -0.0190542 51.4472 0.287102Z" fill="#EEEEEE"/>
<path d="M84.3021 6.92692C81.7779 7.40529 79.1958 9.35704 78.0782 11.6723C75.5154 16.8961 78.3094 22.9427 83.9553 24.397C90.1407 26.0043 96.0948 20.57 95.035 14.2938C94.1679 9.20396 89.4277 5.95105 84.3021 6.92692Z" fill="#EEEEEE"/>
<path d="M54.145 21.4311C50.0407 22.0051 46.052 23.2489 42.3908 25.0858C31.5809 30.5584 24.4128 40.7572 22.9098 52.8695C22.6207 55.2422 22.7749 60.9061 23.1988 63.164C25.0101 72.9036 30.5211 81.2846 38.7104 86.7189C49.347 93.7796 62.7583 94.6981 74.3197 89.1682C75.6108 88.5559 77.5377 87.4843 78.6168 86.7763L80.5629 85.4943L80.9869 86.0492C83.935 89.8379 88.4055 92.2489 93.3191 92.7081L94.8028 92.842V74.0708C94.8028 54.783 94.7643 53.3479 94.0128 49.6549C93.1071 45.2156 90.7756 39.877 88.0972 36.184C83.7809 30.1948 77.2294 25.3728 70.2732 23.0575C66.3423 21.7564 64.2035 21.4119 59.5403 21.3354C57.2666 21.2971 54.8387 21.3354 54.145 21.4311ZM61.949 38.6715C63.5483 38.9394 65.3596 39.5326 66.9589 40.3362C71.9882 42.8237 75.3988 47.0143 76.9211 52.5825C77.5184 54.7447 77.5184 58.9544 76.9211 61.3079C75.1676 68.2156 69.7144 73.5159 62.6619 75.1424C60.4845 75.6399 56.7078 75.6016 54.4726 75.0467C47.7476 73.382 42.5835 68.4261 40.6566 61.7863C40.1171 59.9685 39.9244 56.1033 40.2712 53.9985C41.6008 45.7705 48.7689 39.1307 57.0161 38.4802C58.9237 38.3462 60.2918 38.3845 61.949 38.6715Z" fill="#EEEEEE"/>
</svg>
