<?xml version="1.0" encoding="UTF-8"?><svg id="Layer_1" xmlns="http://www.w3.org/2000/svg" viewBox="0 0 321.88 321.97"><defs><style>.cls-1{fill:#fff;}</style></defs><g><path class="cls-1" d="m244.67,270.17c-23.31,17.63-52.4,28.49-83.68,28.49-75.91,0-137.67-61.66-137.67-137.67S84.98,23.31,160.99,23.31c15.84,0,30.88,2.59,44.83,7.47,2.09-8.07,6.77-15.04,13.25-19.92C200.14,3.59,181.01,0,160.99,0,72.62,0,0,72.52,0,160.99s72.03,160.99,160.99,160.99c44.83,0,85.27-18.13,114.56-47.72h-9.56c-7.07-.2-14.54-1.2-21.32-4.08Z"/><path class="cls-1" d="m276.84,49.61c-2.09,8.07-6.77,15.04-13.25,19.92,21.82,24.41,34.97,56.48,34.97,91.75,0,27.2-7.77,52.4-21.52,73.82v37.86c27.99-28.79,44.83-68.44,44.83-111.47.3-41.84-16.34-82.29-45.03-111.87Z"/></g><circle class="cls-1" cx="240.78" cy="39.75" r="25.1" transform="translate(146.78 264.96) rotate(-76.72)"/><path class="cls-1" d="m162.28,56.09c-56.78,0-103.7,46.42-103.7,103.7s46.42,103.7,103.7,103.7c23.81,0,45.33-8.27,62.76-21.52,8.77,12.95,23.81,21.52,40.64,21.52v-103.7c0-37.06-19.72-69.73-49.51-88.16-15.54-10.36-33.77-15.54-53.89-15.54Zm0,157.3c-29.79,0-54.19-24.41-54.19-54.19s24.41-54.19,54.19-54.19,54.19,24.41,54.19,54.19c-.1,29.89-24.21,54.19-54.19,54.19Z"/></svg>