<svg width="479" height="184" viewBox="0 0 479 184" fill="none" xmlns="http://www.w3.org/2000/svg">
<path d="M293.2 61.0688C271.915 63.6603 256 81.5771 256 102.954C256 119.021 265.076 133.604 279.565 140.818C283.313 142.682 287.592 143.998 292.221 144.727C294.543 145.091 301.647 145.091 303.969 144.727C313.339 143.256 321.255 139.32 327.744 132.862C333.995 126.642 337.995 118.937 339.645 109.888C340.065 107.563 340.19 100.222 339.841 97.6026C338.694 88.8754 335.156 81.2268 329.226 74.5869C328.457 73.7324 327.436 72.6817 326.946 72.2615L326.065 71.477V72.3736C326.065 74.4328 325.31 76.1838 323.744 77.7668C323.017 78.5092 322.471 78.9155 321.716 79.2797C321.157 79.5458 320.611 79.77 320.513 79.77C320.415 79.77 320.332 79.812 320.332 79.854C320.332 79.8961 320.863 80.5264 321.52 81.2549C325.366 85.5274 327.786 90.0381 329.128 95.4734C329.73 97.9108 329.981 100.11 329.981 102.954C329.981 108.081 328.988 112.41 326.751 117.004L325.786 118.993V124.457V129.92H324.681C322.695 129.92 320.29 129.346 318.541 128.463L317.8 128.085L317.283 128.491C315.143 130.186 311.101 132.315 308.234 133.268C293.914 138.045 278.432 132.245 270.628 119.19C268.405 115.463 267.02 111.401 266.419 106.904C266.181 104.999 266.139 101.287 266.363 99.4518C267.636 88.3571 274.432 78.8454 284.502 74.0125C285.299 73.6343 286.879 73.0039 287.998 72.6257C294.893 70.3003 302.193 70.3984 309.046 72.9059C309.885 73.2141 310.584 73.4662 310.626 73.4662C310.654 73.4662 310.682 73.0319 310.682 72.4856C310.682 71.1688 310.892 70.2303 311.479 68.9835C312.164 67.5407 313.563 66.1538 315.059 65.4114L316.164 64.8651L315.674 64.6129C312.584 63.03 306.71 61.447 302.305 60.9987C300.361 60.8026 295.018 60.8447 293.2 61.0688Z" fill="white"/>
<path d="M317.044 65.9298C315.212 66.28 313.338 67.7089 312.527 69.4039C310.667 73.2282 312.694 77.6548 316.792 78.7195C321.281 79.8962 325.603 75.9178 324.834 71.323C324.204 67.5968 320.764 65.2154 317.044 65.9298Z" fill="white"/>
<path d="M295.16 76.5481C292.181 76.9684 289.286 77.8789 286.629 79.2237C278.784 83.2301 273.581 90.6966 272.49 99.5639C272.28 101.301 272.392 105.447 272.7 107.1C274.015 114.231 278.014 120.366 283.958 124.345C291.678 129.514 301.411 130.186 309.803 126.138C310.74 125.69 312.138 124.905 312.921 124.387L314.334 123.448L314.641 123.854C316.781 126.628 320.026 128.393 323.592 128.729L324.669 128.827V115.085C324.669 100.965 324.641 99.9141 324.095 97.2105C323.438 93.9605 321.746 90.0522 319.802 87.3486C316.669 82.964 311.914 79.4339 306.866 77.7388C304.013 76.7863 302.46 76.5341 299.076 76.4781C297.426 76.4501 295.664 76.4781 295.16 76.5481ZM300.824 89.1697C301.985 89.3658 303.299 89.8001 304.46 90.3884C308.11 92.2095 310.586 95.2773 311.691 99.3538C312.124 100.937 312.124 104.019 311.691 105.742C310.418 110.799 306.46 114.679 301.342 115.87C299.761 116.234 297.02 116.206 295.398 115.8C290.517 114.581 286.769 110.953 285.371 106.092C284.979 104.761 284.839 101.931 285.091 100.39C286.056 94.3668 291.258 89.5059 297.244 89.0296C298.628 88.9315 299.621 88.9595 300.824 89.1697Z" fill="white"/>
<path d="M59.4187 130.889V88.4035C59.4187 85.1491 58.7576 82.3269 57.4355 79.9369C56.1643 77.4961 54.232 75.6146 51.6386 74.2925C49.0452 72.9704 45.8416 72.3093 42.0279 72.3093C38.4683 72.3093 35.341 72.9195 32.646 74.14C30.0017 75.3604 27.9169 76.9622 26.3914 78.9453C24.9167 80.9285 24.1794 83.0642 24.1794 85.3525H10.0684C10.0684 82.4031 10.8311 79.4793 12.3566 76.5808C13.8822 73.6823 16.0687 71.0635 18.9164 68.7244C21.8148 66.3344 25.2727 64.453 29.2898 63.08C33.3579 61.6562 37.8836 60.9443 42.8669 60.9443C48.8672 60.9443 54.1557 61.9613 58.7322 63.9953C63.3596 66.0293 66.97 69.1058 69.5634 73.2247C72.2076 77.2927 73.5297 82.4031 73.5297 88.556V126.999C73.5297 129.745 73.7585 132.669 74.2162 135.771C74.7247 138.873 75.462 141.542 76.4282 143.78V145H61.707C60.9951 143.373 60.4357 141.212 60.0289 138.517C59.6221 135.771 59.4187 133.228 59.4187 130.889ZM61.8595 94.9632L62.0121 104.879H47.7485C43.7313 104.879 40.1464 105.21 36.9937 105.871C33.8409 106.481 31.1967 107.422 29.061 108.693C26.9253 109.964 25.2981 111.566 24.1794 113.498C23.0607 115.38 22.5013 117.592 22.5013 120.134C22.5013 122.728 23.0861 125.092 24.2556 127.228C25.4252 129.364 27.1795 131.067 29.5187 132.338C31.9086 133.559 34.8325 134.169 38.2904 134.169C42.6126 134.169 46.4264 133.254 49.7317 131.423C53.037 129.592 55.6558 127.355 57.5881 124.711C59.5713 122.066 60.6391 119.499 60.7917 117.007L66.8174 123.795C66.4615 125.931 65.4953 128.296 63.919 130.889C62.3426 133.482 60.2323 135.974 57.5881 138.364C54.9947 140.703 51.8928 142.661 48.2825 144.237C44.7229 145.763 40.7058 146.526 36.2309 146.526C30.6374 146.526 25.7303 145.432 21.5097 143.246C17.34 141.059 14.0856 138.135 11.7464 134.474C9.45818 130.762 8.31404 126.618 8.31404 122.041C8.31404 117.617 9.1785 113.727 10.9074 110.371C12.6363 106.964 15.128 104.142 18.3824 101.904C21.6368 99.616 25.5523 97.8871 30.1289 96.7175C34.7054 95.548 39.8159 94.9632 45.4603 94.9632H61.8595Z" fill="white"/>
<path d="M167.83 130.355L189.035 62.4698H198.34L196.51 75.9706L174.924 145H165.847L167.83 130.355ZM153.567 62.4698L171.644 131.118L172.941 145H163.406L139.456 62.4698H153.567ZM218.63 130.584L235.868 62.4698H249.903L225.952 145H216.494L218.63 130.584ZM200.4 62.4698L221.147 129.211L223.511 145H214.511L192.315 75.818L190.484 62.4698H200.4Z" fill="white"/>
<path d="M370.932 75.4366V145H356.821V62.4698H370.551L370.932 75.4366ZM396.713 62.0121L396.637 75.1315C395.468 74.8773 394.349 74.7247 393.281 74.6739C392.264 74.5722 391.094 74.5213 389.772 74.5213C386.518 74.5213 383.645 75.0298 381.153 76.0468C378.662 77.0639 376.551 78.4877 374.822 80.3183C373.093 82.1489 371.72 84.3355 370.703 86.878C369.737 89.3697 369.102 92.1156 368.797 95.1158L364.83 97.404C364.83 92.4207 365.313 87.7424 366.279 83.3693C367.296 78.9962 368.847 75.1315 370.932 71.7754C373.017 68.3684 375.661 65.7242 378.865 63.8428C382.119 61.9104 385.984 60.9443 390.459 60.9443C391.476 60.9443 392.645 61.0714 393.967 61.3257C395.29 61.5291 396.205 61.7579 396.713 62.0121Z" fill="white"/>
<path d="M424.173 27.8407V145H409.985V27.8407H424.173ZM474.591 62.4698L438.589 100.989L418.452 121.888L417.308 106.862L431.724 89.6239L457.352 62.4698H474.591ZM461.7 145L432.258 105.642L439.58 93.0563L478.328 145H461.7Z" fill="white"/>
<path d="M99.0936 62.1988H86.3125V73.9168H99.0936V128.246C100.747 143.534 109.744 147.421 114.005 148.486C118.265 149.552 133.176 146.356 133.176 146.356L129.981 132.507C120.669 135.961 114.945 133.03 114.005 128.246C113.065 123.462 114.005 73.9168 114.005 73.9168H133.176L129.981 63.2641H114.005V41.9585H99.0936V62.1988Z" fill="white"/>
</svg>
