<svg width="481" height="184" viewBox="0 0 481 184" fill="none" xmlns="http://www.w3.org/2000/svg">
<g clip-path="url(#clip0_16_98)">
<path d="M57.7973 151.736L54.3003 140.296H53.7101C49.7408 145.294 45.7568 148.7 41.7286 150.513C37.7151 152.326 32.5507 153.225 26.2501 153.225C18.164 153.225 11.8634 151.044 7.31874 146.68C2.7888 142.316 0.516449 136.154 0.516449 128.178C0.516449 119.701 3.65937 113.318 9.95997 108.998C16.2606 104.693 25.8517 102.335 38.748 101.937L52.9575 101.494V97.1157C52.9575 91.8674 51.7328 87.9312 49.2686 85.3365C46.8192 82.7418 43.0123 81.4298 37.8479 81.4298C33.6278 81.4298 29.5848 82.0489 25.7189 83.2873C21.8529 84.5257 18.1345 85.9852 14.5637 87.6658L8.92709 75.1937C13.3833 72.8644 18.2673 71.0953 23.5793 69.8864C28.8913 68.6775 33.8934 68.0583 38.6004 68.0583C49.0621 68.0583 56.9563 70.3434 62.2978 74.8988C67.6245 79.4543 70.2952 86.6191 70.2952 96.3786V151.736H57.7973ZM31.7686 139.839C38.1135 139.839 43.2041 138.07 47.0553 134.532C50.8917 130.994 52.8247 126.026 52.8247 119.627V112.492L42.2598 112.934C34.0262 113.229 28.0355 114.6 24.3023 117.062C20.5544 119.51 18.6805 123.269 18.6805 128.325C18.6805 131.996 19.7724 134.827 21.9562 136.832C24.1253 138.837 27.401 139.839 31.7686 139.839Z" fill="white"/>
<path d="M119.844 139.102C124.109 139.102 128.373 138.439 132.637 137.097V150.248C130.704 151.088 128.211 151.795 125.156 152.37C122.102 152.945 118.944 153.225 115.668 153.225C99.1128 153.225 90.8202 144.513 90.8202 127.072V82.7713H79.5912V75.0463L91.6465 68.648L97.5929 51.252H108.379V69.5326H131.811V82.7566H108.394V126.748C108.394 130.964 109.442 134.075 111.552 136.08C113.662 138.1 116.436 139.102 119.844 139.102Z" fill="white"/>
<path d="M211.063 151.737L200.424 113.391C199.14 109.322 196.809 99.8873 193.43 85.0712H192.766C189.889 98.4426 187.602 107.937 185.919 113.539L174.986 151.737H155.641L132.593 69.5474H150.447L160.938 110.045C163.314 120.055 165.011 128.62 165.999 135.756H166.442C166.944 132.144 167.696 127.986 168.714 123.313C169.733 118.625 170.618 115.131 171.356 112.802L183.854 69.5474H203.051L215.18 112.802C215.917 115.234 216.847 118.949 217.968 123.947C219.09 128.945 219.739 132.837 219.946 135.608H220.536C221.274 129.52 223.015 120.999 225.745 110.045L236.383 69.5474H253.942L230.732 151.737H211.063Z" fill="white"/>
<path d="M390.121 68.0583C393.647 68.0583 396.539 68.309 398.827 68.7955L397.115 85.0711C394.636 84.4814 392.054 84.1866 389.383 84.1866C382.389 84.1866 376.723 86.4717 372.385 91.0271C368.047 95.5825 365.877 101.509 365.877 108.792V151.751H348.392V69.5473H362.071L364.372 84.0392H365.258C367.988 79.1299 371.544 75.2527 375.926 72.3779C380.338 69.4884 385.06 68.0583 390.121 68.0583Z" fill="white"/>
<path d="M425.46 108.335L435.346 95.9953L460.195 69.5326H480.351L447.254 104.826L482.431 151.722H461.906L435.509 115.676L425.918 123.549V151.707H408.58V36.0967H425.903V92.5013L425.018 108.335H425.46Z" fill="white"/>
<path d="M319.708 139.22C313.377 143.997 305.498 146.945 297.014 146.945C276.415 146.945 259.667 130.227 259.667 109.632C259.667 89.0368 276.4 72.3189 297.014 72.3189C301.307 72.3189 305.395 73.0265 309.172 74.3386C309.733 72.1567 311.017 70.255 312.772 68.9429C307.638 66.9674 302.444 65.9944 297.014 65.9944C273.051 65.9944 253.337 85.6461 253.337 109.632C253.337 133.618 272.874 153.27 297.014 153.27C309.172 153.27 320.15 148.36 328.089 140.341H325.492C323.559 140.267 321.537 140.002 319.708 139.22Z" fill="white"/>
<path d="M328.428 79.4395C327.867 81.6213 326.584 83.5231 324.828 84.8352C330.745 91.4546 334.316 100.138 334.316 109.706C334.316 117.077 332.205 123.903 328.472 129.711V139.972C336.071 132.173 340.631 121.426 340.631 109.765C340.719 98.413 336.219 87.4593 328.428 79.4395Z" fill="white"/>
<path d="M318.645 83.5822C322.41 83.5822 325.462 80.5328 325.462 76.7712C325.462 73.0096 322.41 69.9602 318.645 69.9602C314.88 69.9602 311.828 73.0096 311.828 76.7712C311.828 80.5328 314.88 83.5822 318.645 83.5822Z" fill="white"/>
<path d="M297.353 81.1938C281.948 81.1938 269.214 93.7692 269.214 109.308C269.214 124.846 281.801 137.422 297.353 137.422C303.816 137.422 309.644 135.181 314.381 131.584C316.756 135.092 320.844 137.422 325.403 137.422V109.293C325.403 99.2533 320.047 90.3931 311.976 85.3954C307.756 82.5944 302.812 81.1938 297.353 81.1938ZM297.353 123.829C289.267 123.829 282.656 117.21 282.656 109.146C282.656 101.081 289.282 94.4621 297.353 94.4621C305.424 94.4621 312.049 101.081 312.049 109.146C312.02 117.239 305.483 123.829 297.353 123.829Z" fill="white"/>
</g>
<defs>
<clipPath id="clip0_16_98">
<rect width="481" height="184" fill="white"/>
</clipPath>
</defs>
</svg>
