<svg width="163" height="164" viewBox="0 0 163 164" fill="none" xmlns="http://www.w3.org/2000/svg">
<path d="M72.2032 0.737869C30.9458 5.75273 0.0976562 40.423 0.0976562 81.7889C0.0976562 112.881 17.6903 141.1 45.7736 155.06C53.0383 158.665 61.3332 161.213 70.3057 162.623C74.8055 163.328 88.5761 163.328 93.0759 162.623C111.238 159.777 126.581 152.16 139.158 139.663C151.275 127.627 159.028 112.718 162.227 95.207C163.04 90.7072 163.284 76.5029 162.606 71.4339C160.383 54.546 153.525 39.7454 142.032 26.8965C140.541 25.2429 138.562 23.2099 137.613 22.3967L135.906 20.8786V22.6135C135.906 26.5983 134.442 29.9867 131.406 33.0499C129.996 34.4865 128.939 35.2727 127.475 35.9774C126.391 36.4925 125.334 36.9262 125.144 36.9262C124.954 36.9262 124.792 37.0075 124.792 37.0888C124.792 37.1702 125.822 38.39 127.096 39.7996C134.55 48.0673 139.24 56.7959 141.842 67.3135C143.008 72.0302 143.496 76.2861 143.496 81.7889C143.496 91.7102 141.571 100.086 137.234 108.978L135.363 112.827L132.246 118.277L129.264 121.801L126.147 125.596C124.656 127.358 125.632 126.139 121.81 129.12L119.885 130.419L118.882 131.206C114.735 134.486 106.901 138.606 101.344 140.449C73.5857 149.693 43.5779 138.47 28.452 113.206C24.1419 105.996 21.4583 98.1346 20.2926 89.4332C19.8318 85.7465 19.7505 78.5631 20.1842 75.012C22.651 53.543 35.8252 35.1371 55.3425 25.7851C56.8876 25.0532 59.9507 23.8333 62.1193 23.1014C75.4832 18.6016 89.6333 18.7914 102.916 23.6436C104.542 24.2399 105.898 24.7279 105.979 24.7279C106.033 24.7279 106.087 23.8876 106.087 22.8304C106.087 20.2823 106.494 18.4661 107.633 16.0535C108.961 13.2615 111.672 10.5778 114.572 9.14114L116.714 8.08397L115.765 7.59602C109.774 4.5329 98.3889 1.46977 89.8501 0.602325C86.0822 0.222824 75.7272 0.304153 72.2032 0.737869Z" fill="#555555"/>
</svg>
