<svg width="13" height="13" viewBox="0 0 13 13" fill="none" xmlns="http://www.w3.org/2000/svg">
<path d="M6.5 0.8125C9.64112 0.8125 12.1875 3.35888 12.1875 6.5C12.1875 9.64112 9.64112 12.1875 6.5 12.1875C3.35888 12.1875 0.8125 9.64112 0.8125 6.5C0.8125 3.35888 3.35888 0.8125 6.5 0.8125ZM6.5 0C2.91014 0 0 2.91014 0 6.5C0 10.0899 2.91014 13 6.5 13C10.0899 13 13 10.0899 13 6.5C13 2.91014 10.0899 0 6.5 0Z" fill="#CCCCCC"/>
<path d="M5.98003 7.01997V8.86887C5.98003 9.15605 6.2128 9.38892 6.49999 9.38892C6.78717 9.38892 7.01994 9.15605 7.01994 8.86887V7.01997H8.86884C9.15602 7.01997 9.38889 6.7872 9.38889 6.50001C9.38889 6.21283 9.15602 5.98006 8.86884 5.98006H7.01994V4.13116C7.01994 3.84398 6.78717 3.61111 6.49999 3.61111C6.2128 3.61111 5.98003 3.84398 5.98003 4.13116V5.98006H4.13113C3.84395 5.98006 3.61108 6.21283 3.61108 6.50001C3.61108 6.7872 3.84395 7.01997 4.13113 7.01997H5.98003Z" fill="#CCCCCC"/>
</svg>
