<svg width="20" height="20" viewBox="0 0 20 20" fill="none" xmlns="http://www.w3.org/2000/svg">
<path d="M17.1226 1.08384H15.0032V0.65887C15.0032 0.484127 14.9353 0.31654 14.8143 0.192978C14.6933 0.069416 14.5292 0 14.3581 0C14.187 0 14.0229 0.069416 13.9019 0.192978C13.7809 0.31654 13.7129 0.484127 13.7129 0.65887V1.08384H6.34194V0.65887C6.34194 0.484127 6.27396 0.31654 6.15297 0.192978C6.03198 0.069416 5.86788 0 5.69677 0C5.52567 0 5.36157 0.069416 5.24058 0.192978C5.11958 0.31654 5.05161 0.484127 5.05161 0.65887V1.08384H2.87742C2.11484 1.08384 1.38344 1.39299 0.843916 1.94336C0.304388 2.49374 0.000854911 3.24032 0 4.01911V17.0647C0.000854911 17.8435 0.304388 18.5901 0.843916 19.1405C1.38344 19.6909 2.11484 20 2.87742 20H17.1226C17.8852 20 18.6166 19.6909 19.1561 19.1405C19.6956 18.5901 19.9991 17.8435 20 17.0647V4.01911C19.9991 3.24032 19.6956 2.49374 19.1561 1.94336C18.6166 1.39299 17.8852 1.08384 17.1226 1.08384ZM1.29032 4.01911C1.29032 3.59011 1.45719 3.17869 1.75423 2.87534C2.05126 2.572 2.45412 2.40158 2.87419 2.40158H5.04839V2.82985C5.04839 3.00459 5.11636 3.17218 5.23735 3.29574C5.35834 3.4193 5.52244 3.48872 5.69355 3.48872C5.86466 3.48872 6.02875 3.4193 6.14975 3.29574C6.27074 3.17218 6.33871 3.00459 6.33871 2.82985V2.40158H13.7129V2.82985C13.7129 3.00459 13.7809 3.17218 13.9019 3.29574C14.0229 3.4193 14.187 3.48872 14.3581 3.48872C14.5292 3.48872 14.6933 3.4193 14.8143 3.29574C14.9353 3.17218 15.0032 3.00459 15.0032 2.82985V2.40158H17.1226C17.3308 2.40115 17.5372 2.44267 17.7297 2.52376C17.9222 2.60486 18.0972 2.72393 18.2446 2.87418C18.392 3.02442 18.509 3.20288 18.5888 3.39934C18.6686 3.59581 18.7097 3.80641 18.7097 4.01911V6.45034H1.29032V4.01911ZM17.1226 18.6823H2.87742C2.66915 18.6827 2.46284 18.6412 2.27031 18.5601C2.07777 18.479 1.90279 18.3599 1.75537 18.2097C1.60795 18.0594 1.49099 17.881 1.4112 17.6845C1.3314 17.488 1.29032 17.2774 1.29032 17.0647V7.76808H18.7097V17.0647C18.7097 17.2774 18.6686 17.488 18.5888 17.6845C18.509 17.881 18.392 18.0594 18.2446 18.2097C18.0972 18.3599 17.9222 18.479 17.7297 18.5601C17.5372 18.6412 17.3308 18.6827 17.1226 18.6823Z" fill="#C4C4C4" fill-opacity="0.8"/>
</svg>
