<svg width="31" height="31" viewBox="0 0 31 31" fill="none" xmlns="http://www.w3.org/2000/svg">
<path d="M20.3747 18.8999C20.0982 18.6234 19.8217 18.3469 19.5427 18.0678L15.1577 13.6828C14.4639 12.989 13.7676 12.2928 13.0738 11.599C12.738 11.2632 12.4047 10.92 12.064 10.5892C12.059 10.5842 12.0541 10.5793 12.0492 10.5743C11.6837 10.2089 11.0122 10.1793 10.6517 10.5743C10.2912 10.9719 10.2616 11.5792 10.6517 11.9718L15.8685 17.1887C16.5623 17.8825 17.2586 18.5787 17.9524 19.2725C18.2882 19.6083 18.6215 19.9515 18.9622 20.2823C18.9672 20.2873 18.9721 20.2922 18.977 20.2972C19.3425 20.6626 20.014 20.6922 20.3745 20.2972C20.735 19.9021 20.7646 19.2922 20.3745 18.8997L20.3747 18.8999Z" fill="#C62D2D"/>
<path d="M18.9731 10.5745L11.6722 17.8754C11.3364 18.2112 10.9932 18.5445 10.6624 18.8853L10.6476 18.9001C10.2822 19.2655 10.2525 19.9371 10.6476 20.2975C11.0451 20.658 11.6525 20.6876 12.0451 20.2975L19.3459 12.9967C19.6817 12.6609 20.0249 12.3276 20.3558 11.9868L20.3706 11.972C20.736 11.6066 20.7656 10.935 20.3706 10.5745C19.9755 10.2141 19.3657 10.1844 18.9731 10.5745Z" fill="#C62D2D"/>
<circle cx="15.4998" cy="15.4995" r="11.114" transform="rotate(-18.1537 15.4998 15.4995)" stroke="url(#paint0_linear_201_412)" stroke-width="2.3398"/>
<defs>
<linearGradient id="paint0_linear_201_412" x1="8.48037" y1="4.97043" x2="24.274" y2="26.0286" gradientUnits="userSpaceOnUse">
<stop stop-color="#C62D2D"/>
<stop offset="1" stop-color="#C62D2D" stop-opacity="0"/>
</linearGradient>
</defs>
</svg>
