<svg width="16" height="21" viewBox="0 0 16 21" fill="none" xmlns="http://www.w3.org/2000/svg">
<path d="M8.0268 15.1208C7.65346 15.1208 7.3335 14.8009 7.3335 14.4275V8.6933C7.3335 8.31997 7.65345 8 8.0268 8C8.40015 8 8.7201 8.31995 8.7201 8.6933V14.4275C8.7201 14.8274 8.40015 15.1208 8.0268 15.1208Z" fill="#9F9F9F"/>
<path d="M8.0268 15.1208C7.65346 15.1208 7.3335 14.8009 7.3335 14.4275V8.6933C7.3335 8.31997 7.65345 8 8.0268 8C8.40015 8 8.7201 8.31995 8.7201 8.6933V14.4275C8.7201 14.8274 8.40015 15.1208 8.0268 15.1208Z" stroke="9F9F9F"/>
<path d="M8.02676 15.1208C7.84001 15.1208 7.65345 15.0408 7.52007 14.9075L5.20006 12.5875C4.93331 12.3207 4.93331 11.8674 5.20006 11.6008C5.46681 11.3341 5.92012 11.3341 6.1867 11.6008L7.99998 13.4141L9.81326 11.6008C10.08 11.3341 10.5333 11.3341 10.7999 11.6008C11.0666 11.8676 11.0666 12.3209 10.7999 12.5875L8.4799 14.9075C8.40009 15.0676 8.21352 15.1208 8.02676 15.1208Z" fill="#9F9F9F"/>
<path d="M8.02676 15.1208C7.84001 15.1208 7.65345 15.0408 7.52007 14.9075L5.20006 12.5875C4.93331 12.3207 4.93331 11.8674 5.20006 11.6008C5.46681 11.3341 5.92012 11.3341 6.1867 11.6008L7.99998 13.4141L9.81326 11.6008C10.08 11.3341 10.5333 11.3341 10.7999 11.6008C11.0666 11.8676 11.0666 12.3209 10.7999 12.5875L8.4799 14.9075C8.40009 15.0676 8.21352 15.1208 8.02676 15.1208Z" stroke="none"/>
<path d="M2.19268 0.000224403H11.5686C12.0351 0.000224403 12.4548 0.186789 12.8281 0.513322L15.4869 3.17212C15.8134 3.49865 16 3.96512 16 4.43162V18.7519C16 19.9646 15.0204 20.9443 13.8075 20.9443H2.19245C0.979706 20.9443 0 19.9648 0 18.7519V2.19245C0 0.979706 0.979556 0 2.19245 0L2.19268 0.000224403ZM12.2684 1.63283V3.21884C12.2684 3.54536 12.5015 3.82528 12.8281 3.82528H14.4607L12.2682 1.63283H12.2684ZM14.7874 4.99143H12.8282C11.8487 4.99143 11.0556 4.19843 11.0556 3.21884V1.16633H2.19283C1.63313 1.16633 1.16663 1.63283 1.16663 2.19253V18.752C1.16663 19.3117 1.63313 19.7315 2.19283 19.7315H13.8079C14.3676 19.7315 14.7875 19.3116 14.7875 18.752V4.99121L14.7874 4.99143Z" fill="#9F9F9F"/>
</svg>
