<svg width="56" height="41" viewBox="0 0 56 41" fill="none" xmlns="http://www.w3.org/2000/svg">
<path d="M24.12 23.1227L0.0054935 10.0451C0.0376577 8.41878 0.743345 6.86917 1.97084 5.72938C3.19835 4.58908 4.84979 3.9493 6.57032 3.94651H39.1155C38.5937 5.62449 38.5648 7.40468 39.0315 9.09671C39.4976 10.7887 40.4423 12.3293 41.7639 13.5531L24.12 23.1227ZM24.9222 26.2024C24.4253 26.4737 23.8137 26.4737 23.3169 26.2024L0 13.5569V34.7903C0.00192024 36.437 0.694641 38.0152 1.92651 39.1795C3.15829 40.3434 4.82844 40.9981 6.57011 41H41.669C43.4107 40.9982 45.0809 40.3434 46.3126 39.1795C47.5444 38.0152 48.2372 36.437 48.2392 34.7903V16.3146C47.0198 16.2347 45.8254 15.948 44.7132 15.4688L24.9222 26.2024ZM56 6.64753C56.0014 8.41181 55.2612 10.1048 53.9425 11.3531C52.6238 12.6018 50.8341 13.3038 48.9677 13.3052C47.1008 13.3065 45.3101 12.6068 43.9889 11.3604C42.6683 10.1139 41.9252 8.42226 41.9242 6.65764C41.9227 4.89336 42.6625 3.20087 43.9817 1.95212C45.3004 0.70383 47.0901 0.00139395 48.9565 0C50.822 0.00272262 52.6102 0.703784 53.9299 1.94933C55.2501 3.19541 55.9942 4.8843 56 6.64753ZM53.1609 3.77111H53.1613C52.4893 3.22342 51.4753 3.29148 50.8921 3.92357L47.8273 7.26778L47.1067 6.353V6.35255C46.8533 6.02629 46.4716 5.80894 46.0473 5.74995C45.6234 5.69051 45.1918 5.79442 44.8485 6.03764C44.1376 6.54268 43.9887 7.49467 44.5154 8.17213L46.4404 10.6115C46.7361 10.9782 47.1893 11.2014 47.677 11.2214H47.7308C48.2007 11.221 48.6477 11.0285 48.9564 10.6928L53.333 5.92557V5.92602C53.6139 5.61928 53.7536 5.21952 53.7214 4.81521C53.6897 4.41091 53.4886 4.0352 53.1631 3.77111H53.1609Z" fill="url(#paint0_linear_2_131)"/>
<defs>
<linearGradient id="paint0_linear_2_131" x1="7.3209e-07" y1="6.22785" x2="44.63" y2="43.4425" gradientUnits="userSpaceOnUse">
<stop stop-color="#18BA57"/>
<stop offset="1" stop-color="#104424"/>
</linearGradient>
</defs>
</svg>
