<svg width="62" height="61" viewBox="0 0 62 61" fill="none" xmlns="http://www.w3.org/2000/svg">
<path fill-rule="evenodd" clip-rule="evenodd" d="M55.2205 6.25219C56.4435 7.47446 57.1307 9.13149 57.1307 10.8599L57.1302 31.9927C60.4425 35.6659 62.0323 40.5742 61.5009 45.4888C60.97 50.4039 58.3682 54.8598 54.3479 57.7421C50.3278 60.6239 45.2689 61.6585 40.4381 60.5865C35.6072 59.5151 31.4617 56.4384 29.04 52.1275H7.12415C5.39399 52.1275 3.73523 51.441 2.51175 50.2192C1.28876 48.997 0.601562 47.3399 0.601562 45.6115V10.8599C0.601562 9.13149 1.28876 7.47442 2.51175 6.25219C3.73526 5.03045 5.39399 4.34396 7.12415 4.34396H11.4725V0H15.8209V4.34396H41.9113V0H46.2597V4.34396H50.6081C52.3382 4.34396 53.997 5.03045 55.2205 6.25219ZM35.3962 28.4051C40.7766 25.3057 47.4036 25.3071 52.7823 28.4095L52.7821 19.5484H4.9498V45.6121C4.9498 46.1881 5.17888 46.7408 5.58653 47.148C5.99419 47.5553 6.54745 47.7841 7.124 47.7841H27.2571C26.8911 46.3645 26.7014 44.9058 26.6917 43.4402C26.6979 37.2351 30.0155 31.5046 35.3962 28.4051ZM51.1533 36.686C52.1733 36.686 53 37.5129 53 38.5327L53.0001 38.5328C53.0001 38.9746 52.8445 39.3799 52.5855 39.6978L52.586 39.6982L44.5841 49.5238L44.5836 49.5234C44.2449 49.9389 43.7296 50.205 43.1515 50.205C42.6147 50.205 42.1335 49.9748 41.7961 49.6095L41.7945 49.6109L37.4858 44.945L37.4874 44.9436C37.1834 44.6144 36.9961 44.1758 36.9961 43.6924C36.9961 42.6727 37.8228 41.846 38.8428 41.8459C39.3795 41.8459 39.8608 42.076 40.1981 42.4414L40.1997 42.44L43.0636 45.5416L49.7208 37.3673L49.7212 37.3676C50.0599 36.9521 50.5755 36.686 51.1533 36.686Z" fill="url(#paint0_linear_2_1790)"/>
<defs>
<linearGradient id="paint0_linear_2_1790" x1="-5.98197e-06" y1="9.26583" x2="60.0397" y2="45.9198" gradientUnits="userSpaceOnUse">
<stop stop-color="#18BA57"/>
<stop offset="1" stop-color="#104424"/>
</linearGradient>
</defs>
</svg>
