<svg width="37" height="41" viewBox="0 0 37 41" fill="none" xmlns="http://www.w3.org/2000/svg">
<g filter="url(#filter0_d_325_634)">
<path fill-rule="evenodd" clip-rule="evenodd" d="M15.7143 13.9593C15.7143 12.2701 16.9846 10.9444 18.5 10.9444C20.0154 10.9444 21.2857 12.2701 21.2857 13.9593V15.6187H22.2143V13.9593C22.2143 11.7967 20.5744 10 18.5 10C16.4256 10 14.7857 11.7968 14.7857 13.9593V15.6666H14.3214C13.0394 15.6666 12 16.7237 12 18.0276V24.639C12 25.9429 13.0394 27 14.3214 27H22.6786C23.9606 27 25 25.9429 25 24.639V18.0276C25 16.7237 23.9606 15.6666 22.6786 15.6666H15.7143V13.9593ZM15.2499 16.611H14.3214C13.5522 16.611 12.9285 17.2453 12.9285 18.0276V24.639C12.9285 25.4213 13.5522 26.0556 14.3214 26.0556H22.6786C23.4478 26.0556 24.0715 25.4213 24.0715 24.639V18.0276C24.0715 17.2453 23.4478 16.611 22.6786 16.611H15.2499ZM18.5 19.4225C18.7563 19.4225 18.9643 19.6339 18.9643 19.8946V23.0748C18.9643 23.3357 18.7563 23.547 18.5 23.547C18.2437 23.547 18.0357 23.3357 18.0357 23.0748V19.8946C18.0357 19.6339 18.2437 19.4225 18.5 19.4225Z" fill="#18BA57"/>
</g>
<defs>
<filter id="filter0_d_325_634" x="0" y="0" width="37" height="41" filterUnits="userSpaceOnUse" color-interpolation-filters="sRGB">
<feFlood flood-opacity="0" result="BackgroundImageFix"/>
<feColorMatrix in="SourceAlpha" type="matrix" values="0 0 0 0 0 0 0 0 0 0 0 0 0 0 0 0 0 0 127 0" result="hardAlpha"/>
<feOffset dy="2"/>
<feGaussianBlur stdDeviation="6"/>
<feComposite in2="hardAlpha" operator="out"/>
<feColorMatrix type="matrix" values="0 0 0 0 0.0941176 0 0 0 0 0.729412 0 0 0 0 0.341176 0 0 0 0.7 0"/>
<feBlend mode="normal" in2="BackgroundImageFix" result="effect1_dropShadow_325_634"/>
<feBlend mode="normal" in="SourceGraphic" in2="effect1_dropShadow_325_634" result="shape"/>
</filter>
</defs>
</svg>
