<svg width="15" height="4" viewBox="0 0 15 4" fill="none" xmlns="http://www.w3.org/2000/svg">
<path d="M5.6391 3.59107C3.95989 3.23704 1.92508 2.19293 0.56391 0.986842L0 0.487185L0.553647 0.0650284L1.12274 0.55978C3.9441 3.01283 7.3385 3.71162 10.4983 2.48984C11.6825 2.03204 12.6275 1.45587 14.184 0.243026L14.496 -4.48227e-05L15 0.490673L14.718 0.711181C12.4775 2.46325 10.7942 3.2959 8.80444 3.63652C7.91718 3.78847 6.47695 3.76776 5.6391 3.59107Z" fill="#C4C4C4"/>
<path d="M5.6391 3.59107C3.95989 3.23704 1.92508 2.19293 0.56391 0.986842L0 0.487185L0.553647 0.0650284L1.12274 0.55978C3.9441 3.01283 7.3385 3.71162 10.4983 2.48984C11.6825 2.03204 12.6275 1.45587 14.184 0.243026L14.496 -4.48227e-05L15 0.490673L14.718 0.711181C12.4775 2.46325 10.7942 3.2959 8.80444 3.63652C7.91718 3.78847 6.47695 3.76776 5.6391 3.59107Z" stroke="black"/>
</svg>
