<svg width="13" height="13" viewBox="0 0 13 13" fill="none" xmlns="http://www.w3.org/2000/svg">
<path d="M6.49821 0C4.7744 0.000453463 3.12144 0.685732 1.90275 1.90493C0.68406 3.12414 -0.000278526 4.77742 8.50388e-08 6.50109C0.00036286 8.22491 0.685384 9.87809 1.90447 11.0968C3.12358 12.3155 4.77672 13.0002 6.50063 13C8.22453 12.9998 9.87763 12.3149 11.0966 11.096C12.3154 9.87695 13.0001 8.22372 13.0001 6.50005C12.9982 4.77642 12.3125 3.12398 11.0935 1.90528C9.87454 0.68673 8.22191 0.00143949 6.49824 0L6.49821 0ZM6.49821 11.8983C5.06715 11.8979 3.69492 11.329 2.68333 10.3169C1.67174 9.30476 1.10353 7.93222 1.10363 6.50132C1.10381 5.07035 1.67236 3.69803 2.68423 2.68621C3.6961 1.67438 5.06845 1.10578 6.49935 1.1056C7.93041 1.10551 9.30288 1.67371 10.3149 2.6853C11.327 3.69699 11.8959 5.06928 11.8964 6.50019C11.8949 7.93144 11.3257 9.30371 10.3137 10.3158C9.30151 11.3278 7.92921 11.897 6.49807 11.8985L6.49821 11.8983Z" fill="#CD3535"/>
<path d="M10.0661 5.8562H2.93159C2.70159 5.8562 2.48909 5.97891 2.37409 6.17807C2.25909 6.37722 2.25909 6.62264 2.37409 6.82182C2.48909 7.02101 2.70157 7.14369 2.93159 7.14369H10.0661C10.2961 7.14369 10.5086 7.02098 10.6236 6.82182C10.7386 6.62267 10.7386 6.37725 10.6236 6.17807C10.5086 5.97888 10.2961 5.8562 10.0661 5.8562Z" fill="#CD3535"/>
</svg>
