<svg width="13" height="12" viewBox="0 0 13 12" fill="none" xmlns="http://www.w3.org/2000/svg">
<path d="M12.7924 10.9618L10.556 8.74545C12.2532 6.62899 12.0934 3.51411 10.1567 1.57732C9.13837 0.559039 7.80062 0 6.36293 0C4.92531 0 3.56763 0.559075 2.54924 1.57732C1.53096 2.5956 0.971924 3.93349 0.971924 5.39101C0.971924 6.84856 1.531 8.18631 2.54924 9.20469C3.56752 10.203 4.90541 10.782 6.36293 10.782C7.58091 10.782 8.779 10.3626 9.71731 9.604L11.9336 11.8203C12.0534 11.9401 12.1933 12 12.353 12C12.5128 12 12.6725 11.9401 12.7724 11.8203C13.012 11.5806 13.012 11.2014 12.7923 10.9617L12.7924 10.9618ZM10.556 5.39101C10.556 6.50912 10.1167 7.56737 9.31804 8.34608C8.51943 9.12479 7.48108 9.584 6.36297 9.584C5.24485 9.584 4.1866 9.14472 3.40789 8.34608C2.62904 7.54747 2.16983 6.50912 2.16983 5.39101C2.16983 4.27289 2.60911 3.21464 3.40775 2.43593C4.2065 1.65708 5.22478 1.19787 6.36297 1.19787C7.48108 1.19787 8.53933 1.63715 9.31804 2.43579C10.0968 3.23454 10.556 4.25282 10.556 5.39101V5.39101Z" fill="#C4C4C4"/>
</svg>
