<svg width="15" height="8" viewBox="0 0 15 8" fill="none" xmlns="http://www.w3.org/2000/svg">
<path d="M5.6391 0.147211C3.95989 0.501243 1.92508 1.54535 0.56391 2.75144L0 3.2511L0.553647 3.67325L1.12274 3.1785C3.9441 0.725456 7.3385 0.026657 10.4983 1.24844C11.6825 1.70624 12.6275 2.28241 14.184 3.49526L14.496 3.73833L15 3.24761L14.718 3.0271C12.4775 1.27503 10.7942 0.442383 8.80444 0.101758C7.91718 -0.0501877 6.47695 -0.0294777 5.6391 0.147211ZM6.27835 2.99593C4.26327 3.96646 4.29925 6.78281 6.33902 7.7371C7.9456 8.48876 9.85974 7.5578 10.2298 5.84486C10.3318 5.37202 10.3194 5.1611 10.157 4.6197C9.67816 3.0223 7.83 2.24873 6.27835 2.99593ZM8.32128 3.51357C9.50718 3.99524 9.97241 5.42456 9.2709 6.43063C8.52395 7.50188 7.14857 7.66156 6.15338 6.79261C5.59026 6.30092 5.42989 5.90492 5.49361 5.16306C5.60752 3.83534 7.04662 2.99593 8.32128 3.51357Z" fill="#C4C4C4"/>
<path d="M5.6391 0.147211C3.95989 0.501243 1.92508 1.54535 0.56391 2.75144L0 3.2511L0.553647 3.67325L1.12274 3.1785C3.9441 0.725456 7.3385 0.026657 10.4983 1.24844C11.6825 1.70624 12.6275 2.28241 14.184 3.49526L14.496 3.73833L15 3.24761L14.718 3.0271C12.4775 1.27503 10.7942 0.442383 8.80444 0.101758C7.91718 -0.0501877 6.47695 -0.0294777 5.6391 0.147211ZM6.27835 2.99593C4.26327 3.96646 4.29925 6.78281 6.33902 7.7371C7.9456 8.48876 9.85974 7.5578 10.2298 5.84486C10.3318 5.37202 10.3194 5.1611 10.157 4.6197C9.67816 3.0223 7.83 2.24873 6.27835 2.99593ZM8.32128 3.51357C9.50718 3.99524 9.97241 5.42456 9.2709 6.43063C8.52395 7.50188 7.14857 7.66156 6.15338 6.79261C5.59026 6.30092 5.42989 5.90492 5.49361 5.16306C5.60752 3.83534 7.04662 2.99593 8.32128 3.51357Z" stroke="black"/>
</svg>
