<svg width="20" height="20" viewBox="0 0 20 20" fill="none" xmlns="http://www.w3.org/2000/svg">
<path d="M15.2436 9.31114C14.8539 9.31114 14.5291 8.9864 14.5291 8.59658V2.14396C14.5291 1.45099 14.4857 1.4078 13.8145 1.4078H2.1435C1.75382 1.4078 1.45052 1.71093 1.45052 2.10077V16.9331C1.45052 17.5178 1.53707 17.6043 2.12173 17.6043H13.7494C14.1391 17.6043 14.464 17.9075 14.464 18.2973C14.464 18.687 14.1393 19.0119 13.7494 19.0119H2.03512C0.974075 19.0119 0.259484 18.5139 0.0646451 17.6261C0.0212964 17.4095 0.0212963 17.1931 0.0212963 16.9764C0.0215984 12.0608 0.0433483 7.1239 0 2.20865C0 1.45072 0.173244 0.84447 0.649631 0.433023C0.974366 0.129888 1.42914 0 1.86217 0H14.1395C14.5943 0 15.0273 0.151645 15.3738 0.454792C15.8501 0.887815 16.0016 1.51583 16.0016 2.27361C15.9583 4.54723 15.98 6.3877 15.98 8.57466C15.98 8.98595 15.6551 9.31083 15.2437 9.31083L15.2436 9.31114Z" fill="#C4C4C4" fill-opacity="0.6"/>
<path d="M18.8814 18.7733C18.5567 19.098 18.0369 19.098 17.7122 18.7733C16.7595 17.8205 15.8067 16.8678 14.9406 15.9801C14.2261 16.0884 13.6414 16.2833 13.0785 16.2617C11.4545 16.2183 10.1552 14.8759 10.0903 13.2085C10.0254 11.5846 11.2813 10.1988 12.9918 10.0039C14.4859 9.83068 15.9799 10.9567 16.3047 12.5157C16.4346 13.1653 16.3696 13.815 16.0881 14.3995C15.9798 14.6161 16.0232 14.7242 16.1746 14.8975C17.0841 15.7853 17.9719 16.6947 18.8813 17.5825C19.2062 17.9288 19.2062 18.4485 18.8814 18.7733L18.8814 18.7733ZM13.2083 14.984C14.2693 14.984 15.0705 14.2045 15.0921 13.1652C15.0921 12.1259 14.291 11.303 13.2733 11.303C12.234 11.303 11.4111 12.1041 11.3895 13.1218C11.3679 14.1611 12.1474 14.984 13.2083 14.984Z" fill="#C4C4C4" fill-opacity="0.6"/>
<path d="M11.6061 8.29346V9.70083H2.75V8.29346H11.6061V8.29346Z" fill="#C4C4C4" fill-opacity="0.6"/>
<path d="M2.72852 5.63003V4.22266H11.5846V5.63003H2.72852Z" fill="#C4C4C4" fill-opacity="0.6"/>
</svg>
