<svg style="position:absolute;z-index:-1;left:0;top:0;width:0;height:0;overflow:hidden">
    <symbol id="download" viewBox="0 0 16 21">
        <path
            d="M8.0268 15.1208C7.65346 15.1208 7.3335 14.8009 7.3335 14.4275V8.6933C7.3335 8.31997 7.65345 8 8.0268 8C8.40015 8 8.7201 8.31995 8.7201 8.6933V14.4275C8.7201 14.8274 8.40015 15.1208 8.0268 15.1208Z"
            fill="currentColor" />
        <path
            d="M8.0268 15.1208C7.65346 15.1208 7.3335 14.8009 7.3335 14.4275V8.6933C7.3335 8.31997 7.65345 8 8.0268 8C8.40015 8 8.7201 8.31995 8.7201 8.6933V14.4275C8.7201 14.8274 8.40015 15.1208 8.0268 15.1208Z"
            stroke="currentColor" />
        <path
            d="M8.02676 15.1208C7.84001 15.1208 7.65345 15.0408 7.52007 14.9075L5.20006 12.5875C4.93331 12.3207 4.93331 11.8674 5.20006 11.6008C5.46681 11.3341 5.92012 11.3341 6.1867 11.6008L7.99998 13.4141L9.81326 11.6008C10.08 11.3341 10.5333 11.3341 10.7999 11.6008C11.0666 11.8676 11.0666 12.3209 10.7999 12.5875L8.4799 14.9075C8.40009 15.0676 8.21352 15.1208 8.02676 15.1208Z"
            fill="currentColor" />
        <path
            d="M8.02676 15.1208C7.84001 15.1208 7.65345 15.0408 7.52007 14.9075L5.20006 12.5875C4.93331 12.3207 4.93331 11.8674 5.20006 11.6008C5.46681 11.3341 5.92012 11.3341 6.1867 11.6008L7.99998 13.4141L9.81326 11.6008C10.08 11.3341 10.5333 11.3341 10.7999 11.6008C11.0666 11.8676 11.0666 12.3209 10.7999 12.5875L8.4799 14.9075C8.40009 15.0676 8.21352 15.1208 8.02676 15.1208Z"
            stroke="none" />
        <path
            d="M2.19268 0.000224403H11.5686C12.0351 0.000224403 12.4548 0.186789 12.8281 0.513322L15.4869 3.17212C15.8134 3.49865 16 3.96512 16 4.43162V18.7519C16 19.9646 15.0204 20.9443 13.8075 20.9443H2.19245C0.979706 20.9443 0 19.9648 0 18.7519V2.19245C0 0.979706 0.979556 0 2.19245 0L2.19268 0.000224403ZM12.2684 1.63283V3.21884C12.2684 3.54536 12.5015 3.82528 12.8281 3.82528H14.4607L12.2682 1.63283H12.2684ZM14.7874 4.99143H12.8282C11.8487 4.99143 11.0556 4.19843 11.0556 3.21884V1.16633H2.19283C1.63313 1.16633 1.16663 1.63283 1.16663 2.19253V18.752C1.16663 19.3117 1.63313 19.7315 2.19283 19.7315H13.8079C14.3676 19.7315 14.7875 19.3116 14.7875 18.752V4.99121L14.7874 4.99143Z"
            fill="currentColor" />
    </symbol>
    <symbol id="tick-circle" viewBox="0 0 16 16">
        <path fill-rule="evenodd" clip-rule="evenodd"
            d="M8 0C12.4171 0 16 3.58286 16 8C16 12.4171 12.4171 16 8 16C3.58286 16 0 12.4171 0 8C0 3.58286 3.58286 0 8 0ZM7.75458 11.632C7.21472 12.1719 6.42946 12.0737 5.93861 11.4848L2.79746 8.34365C1.66866 7.21485 3.38641 5.49699 4.51521 6.62591L6.92012 8.98171L11.4844 4.41742C12.6132 3.28862 14.3801 5.00636 13.2021 6.13516L7.75415 11.632L7.75458 11.632Z"
            fill="currentColor" />
    </symbol>
    <symbol id="close-circle" viewBox="0 0 16 16">
        <path
            d="M8 0.00014449C5.8782 0.00014449 3.84338 0.842934 2.34314 2.34326C0.842892 3.84358 0 5.87839 0 8.00007C0 10.1218 0.842798 12.1567 2.34314 13.6569C3.84347 15.1571 5.8783 16 8 16C10.1217 16 12.1566 15.1572 13.6569 13.6569C15.1571 12.1566 16 10.1218 16 8.00007C16.0013 6.59536 15.6322 5.21522 14.9302 3.99858C14.2281 2.78194 13.218 1.7718 12.0014 1.06982C10.7847 0.367837 9.40458 -0.0012653 7.99986 3.25888e-06L8 0.00014449ZM10.9106 9.74358C11.1193 9.95207 11.2006 10.256 11.1242 10.541C11.0481 10.8259 10.8254 11.0485 10.5406 11.1247C10.2556 11.201 9.95166 11.1197 9.74314 10.911L7.99995 9.15982L6.25675 10.911C6.04826 11.1197 5.74434 11.201 5.45929 11.1247C5.17445 11.0485 4.95182 10.8259 4.87566 10.541C4.79931 10.256 4.88061 9.9521 5.08929 9.74358L6.84052 8.0004L5.08929 6.25722C4.88208 6.04836 4.8017 5.74519 4.87823 5.46108C4.95476 5.17716 5.17665 4.95526 5.46059 4.87872C5.7447 4.80219 6.04789 4.88258 6.25674 5.08978L7.99993 6.841L9.74313 5.08978C9.89767 4.93378 10.108 4.84606 10.3275 4.84551C10.547 4.84514 10.7577 4.93213 10.913 5.0874C11.0683 5.24266 11.1552 5.45335 11.1549 5.67286C11.1543 5.89236 11.0666 6.10268 10.9106 6.25724L9.15937 8.00042L10.9106 9.74358Z"
            fill="currentColor" />
    </symbol>
    <symbol id="calendar" viewBox="0 0 20 20">
        <path
            d="M17.1226 1.08384H15.0032V0.65887C15.0032 0.484127 14.9353 0.31654 14.8143 0.192978C14.6933 0.069416 14.5292 0 14.3581 0C14.187 0 14.0229 0.069416 13.9019 0.192978C13.7809 0.31654 13.7129 0.484127 13.7129 0.65887V1.08384H6.34194V0.65887C6.34194 0.484127 6.27396 0.31654 6.15297 0.192978C6.03198 0.069416 5.86788 0 5.69677 0C5.52567 0 5.36157 0.069416 5.24058 0.192978C5.11958 0.31654 5.05161 0.484127 5.05161 0.65887V1.08384H2.87742C2.11484 1.08384 1.38344 1.39299 0.843916 1.94336C0.304388 2.49374 0.000854911 3.24032 0 4.01911V17.0647C0.000854911 17.8435 0.304388 18.5901 0.843916 19.1405C1.38344 19.6909 2.11484 20 2.87742 20H17.1226C17.8852 20 18.6166 19.6909 19.1561 19.1405C19.6956 18.5901 19.9991 17.8435 20 17.0647V4.01911C19.9991 3.24032 19.6956 2.49374 19.1561 1.94336C18.6166 1.39299 17.8852 1.08384 17.1226 1.08384ZM1.29032 4.01911C1.29032 3.59011 1.45719 3.17869 1.75423 2.87534C2.05126 2.572 2.45412 2.40158 2.87419 2.40158H5.04839V2.82985C5.04839 3.00459 5.11636 3.17218 5.23735 3.29574C5.35834 3.4193 5.52244 3.48872 5.69355 3.48872C5.86466 3.48872 6.02875 3.4193 6.14975 3.29574C6.27074 3.17218 6.33871 3.00459 6.33871 2.82985V2.40158H13.7129V2.82985C13.7129 3.00459 13.7809 3.17218 13.9019 3.29574C14.0229 3.4193 14.187 3.48872 14.3581 3.48872C14.5292 3.48872 14.6933 3.4193 14.8143 3.29574C14.9353 3.17218 15.0032 3.00459 15.0032 2.82985V2.40158H17.1226C17.3308 2.40115 17.5372 2.44267 17.7297 2.52376C17.9222 2.60486 18.0972 2.72393 18.2446 2.87418C18.392 3.02442 18.509 3.20288 18.5888 3.39934C18.6686 3.59581 18.7097 3.80641 18.7097 4.01911V6.45034H1.29032V4.01911ZM17.1226 18.6823H2.87742C2.66915 18.6827 2.46284 18.6412 2.27031 18.5601C2.07777 18.479 1.90279 18.3599 1.75537 18.2097C1.60795 18.0594 1.49099 17.881 1.4112 17.6845C1.3314 17.488 1.29032 17.2774 1.29032 17.0647V7.76808H18.7097V17.0647C18.7097 17.2774 18.6686 17.488 18.5888 17.6845C18.509 17.881 18.392 18.0594 18.2446 18.2097C18.0972 18.3599 17.9222 18.479 17.7297 18.5601C17.5372 18.6412 17.3308 18.6827 17.1226 18.6823Z"
            fill-opacity="0.8" fill="currentColor" />
    </symbol>
    <symbol id="remove" viewBox="0 0 13 13">
        <path
            d="M6.49821 0C4.7744 0.000453463 3.12144 0.685732 1.90275 1.90493C0.68406 3.12414 -0.000278526 4.77742 8.50388e-08 6.50109C0.00036286 8.22491 0.685384 9.87809 1.90447 11.0968C3.12358 12.3155 4.77672 13.0002 6.50063 13C8.22453 12.9998 9.87763 12.3149 11.0966 11.096C12.3154 9.87695 13.0001 8.22372 13.0001 6.50005C12.9982 4.77642 12.3125 3.12398 11.0935 1.90528C9.87454 0.68673 8.22191 0.00143949 6.49824 0L6.49821 0ZM6.49821 11.8983C5.06715 11.8979 3.69492 11.329 2.68333 10.3169C1.67174 9.30476 1.10353 7.93222 1.10363 6.50132C1.10381 5.07035 1.67236 3.69803 2.68423 2.68621C3.6961 1.67438 5.06845 1.10578 6.49935 1.1056C7.93041 1.10551 9.30288 1.67371 10.3149 2.6853C11.327 3.69699 11.8959 5.06928 11.8964 6.50019C11.8949 7.93144 11.3257 9.30371 10.3137 10.3158C9.30151 11.3278 7.92921 11.897 6.49807 11.8985L6.49821 11.8983Z" />
        <path
            d="M10.0661 5.8562H2.93159C2.70159 5.8562 2.48909 5.97891 2.37409 6.17807C2.25909 6.37722 2.25909 6.62264 2.37409 6.82182C2.48909 7.02101 2.70157 7.14369 2.93159 7.14369H10.0661C10.2961 7.14369 10.5086 7.02098 10.6236 6.82182C10.7386 6.62267 10.7386 6.37725 10.6236 6.17807C10.5086 5.97888 10.2961 5.8562 10.0661 5.8562Z" />


    </symbol>
    <symbol id="view-details" viewBox="0 0 20 20">
        <path
            d="M15.2436 9.31114C14.8539 9.31114 14.5291 8.9864 14.5291 8.59659V2.14396C14.5291 1.45099 14.4857 1.4078 13.8145 1.4078H2.1435C1.75382 1.4078 1.45052 1.71093 1.45052 2.10077V16.9331C1.45052 17.5178 1.53707 17.6043 2.12173 17.6043H13.7494C14.1391 17.6043 14.464 17.9075 14.464 18.2973C14.464 18.687 14.1393 19.0119 13.7494 19.0119H2.03512C0.974075 19.0119 0.259484 18.5139 0.0646451 17.6261C0.0212964 17.4095 0.0212963 17.1931 0.0212963 16.9764C0.0215984 12.0608 0.0433483 7.1239 0 2.20865C0 1.45072 0.173244 0.84447 0.649631 0.433023C0.974366 0.129888 1.42914 0 1.86217 0H14.1395C14.5943 0 15.0273 0.151645 15.3738 0.454792C15.8501 0.887815 16.0016 1.51583 16.0016 2.27361C15.9583 4.54723 15.98 6.3877 15.98 8.57466C15.98 8.98595 15.6551 9.31083 15.2437 9.31083L15.2436 9.31114Z" />
        <path
            d="M18.8814 18.7733C18.5567 19.098 18.0369 19.098 17.7122 18.7733C16.7595 17.8205 15.8067 16.8678 14.9406 15.9801C14.2261 16.0884 13.6414 16.2833 13.0785 16.2617C11.4545 16.2183 10.1552 14.8759 10.0903 13.2085C10.0254 11.5846 11.2813 10.1988 12.9918 10.0039C14.4859 9.83068 15.9799 10.9567 16.3047 12.5157C16.4346 13.1653 16.3696 13.815 16.0881 14.3995C15.9798 14.6161 16.0232 14.7242 16.1747 14.8975C17.0841 15.7853 17.9719 16.6947 18.8813 17.5825C19.2062 17.9288 19.2062 18.4485 18.8814 18.7733L18.8814 18.7733ZM13.2083 14.984C14.2693 14.984 15.0705 14.2045 15.0921 13.1652C15.0921 12.1259 14.291 11.303 13.2733 11.303C12.234 11.303 11.4111 12.1041 11.3895 13.1218C11.3679 14.1611 12.1474 14.984 13.2083 14.984Z" />
        <path d="M12.4987 8V9.40737H3.64258V8H12.4987Z" />
        <path d="M3.64258 5.40737V4H12.4987V5.40737H3.64258Z" />
    </symbol>

    <symbol id="disable" viewBox="0 0 16 16">
        <path
            d="M12.8359 2.20227C11.7844 1.15077 10.4446 0.43459 8.98601 0.144395C7.52741 -0.145597 6.01553 0.00329041 4.64174 0.572277C3.26773 1.14145 2.09339 2.10516 1.26724 3.34161C0.440924 4.57823 0 6.03189 0 7.51908C0 9.00626 0.440924 10.4599 1.26724 11.6965C2.09339 12.933 3.26777 13.8967 4.64174 14.4659C6.01558 15.0349 7.52745 15.1837 8.98601 14.8938C10.4446 14.6036 11.7844 13.8874 12.8359 12.8359C13.7775 11.907 14.4555 10.745 14.8006 9.46832C15.1457 8.19176 15.1457 6.84638 14.8006 5.56983C14.4554 4.2931 13.7775 3.1311 12.8359 2.20226V2.20227ZM3.23091 3.2306V3.23077C4.27869 2.18282 5.67401 1.55496 7.15327 1.4656C8.63232 1.3761 10.0931 1.83156 11.2594 2.74571L2.74841 11.2614C1.83442 10.0952 1.37899 8.63442 1.4683 7.15534C1.5578 5.67612 2.18565 4.2808 3.23364 3.23298L3.23091 3.2306ZM11.8077 11.8074C10.7599 12.8553 9.36478 13.4832 7.88552 13.5726C6.4063 13.6621 4.94566 13.2066 3.77925 12.2924L12.288 3.7789C13.2027 4.94462 13.659 6.40508 13.5705 7.88412C13.482 9.36334 12.855 10.7588 11.8077 11.8073V11.8074Z"
            fill="currentColor" />
    </symbol>
    <symbol id="circle-close-red" viewBox="0 0 31 31" fill="none">
        <path
            d="M20.3747 18.8999C20.0982 18.6234 19.8217 18.3469 19.5427 18.0678L15.1577 13.6828C14.4639 12.989 13.7676 12.2928 13.0738 11.599C12.738 11.2632 12.4047 10.92 12.064 10.5892C12.059 10.5842 12.0541 10.5793 12.0492 10.5743C11.6837 10.2089 11.0122 10.1793 10.6517 10.5743C10.2912 10.9719 10.2616 11.5792 10.6517 11.9718L15.8685 17.1887C16.5623 17.8825 17.2586 18.5787 17.9524 19.2725C18.2882 19.6083 18.6215 19.9515 18.9622 20.2823C18.9672 20.2873 18.9721 20.2922 18.977 20.2972C19.3425 20.6626 20.014 20.6922 20.3745 20.2972C20.735 19.9021 20.7646 19.2922 20.3745 18.8997L20.3747 18.8999Z"
            fill="#C62D2D" />
        <path
            d="M18.9731 10.5745L11.6722 17.8754C11.3364 18.2112 10.9932 18.5445 10.6624 18.8853L10.6476 18.9001C10.2822 19.2655 10.2525 19.9371 10.6476 20.2975C11.0451 20.658 11.6525 20.6876 12.0451 20.2975L19.3459 12.9967C19.6817 12.6609 20.0249 12.3276 20.3558 11.9868L20.3706 11.972C20.736 11.6066 20.7656 10.935 20.3706 10.5745C19.9755 10.2141 19.3657 10.1844 18.9731 10.5745Z"
            fill="#C62D2D" />
        <circle cx="15.4998" cy="15.4995" r="11.114" transform="rotate(-18.1537 15.4998 15.4995)"
            stroke="url(#paint0_linear_201_412)" stroke-width="2.3398" />
        <defs>
            <linearGradient id="paint0_linear_201_412" x1="8.48037" y1="4.97043" x2="24.274" y2="26.0286"
                gradientUnits="userSpaceOnUse">
                <stop stop-color="#C62D2D" />
                <stop offset="1" stop-color="#C62D2D" stop-opacity="0" />
            </linearGradient>
        </defs>
    </symbol>


    <!-- Rahul change(icon tick with green background)******** -->
    <symbol id="success-tick-circle" width="40" height="40" viewBox="0 0 40 40" fill="none">
        <path
            d="M20 0C8.96946 0 0 8.96947 0 20C0 31.0305 8.96946 40 20 40C31.0305 40 40 31.0305 40 20C40 8.96947 31.0305 0 20 0ZM31.6412 14.4656L18.2061 27.9008C17.8436 28.4541 17.2519 28.7979 16.584 28.7979C15.9544 28.7979 15.3243 28.4733 14.9618 27.9391L8.35867 21.3551C7.99616 20.9926 7.80532 20.5155 7.80532 20.0001C7.80532 19.4846 7.99616 19.0075 8.35867 18.645C9.10285 17.9008 10.3054 17.9008 11.0496 18.645L16.5648 24.1602L28.9497 11.7752C29.2931 11.4127 29.7893 11.2027 30.2856 11.2027C30.801 11.2027 31.2781 11.4127 31.6407 11.7752C32.0032 12.1185 32.194 12.5956 32.194 13.1111C32.194 13.6265 32.0032 14.1036 31.6407 14.4661L31.6412 14.4656Z"
            fill="url(#paint0_linear_57_10205)" />
        <defs>
            <linearGradient id="paint0_linear_57_10205" x1="5.22921e-07" y1="6.07595" x2="39.3703" y2="30.1114"
                gradientUnits="userSpaceOnUse">
                <stop stop-color="#18BA57" />
                <stop offset="1" stop-color="#104424" />
            </linearGradient>
        </defs>
    </symbol>
    <!-- ****************************************************** -->


    <!-- Rahul change(icon alert with yellow background)******** -->
    <symbol id="yellow_alert" width="40" height="40" viewBox="0 0 40 40" fill="none">
        <path
            d="M20 0C8.96842 0 0 8.96842 0 20C0 31.0316 8.96842 40 20 40C31.0316 40 40 31.0316 40 20C40 8.96842 31.0316 0 20 0ZM17.3473 9.97895C17.3473 8.50511 18.5682 7.32624 20 7.32624C21.4738 7.32624 22.6527 8.54714 22.6527 9.97895V20.6737C22.6527 22.1475 21.4318 23.3264 20 23.3264C18.5262 23.3264 17.3473 22.1055 17.3473 20.6737V9.97895ZM20 32.6737C18.1896 32.6737 16.7578 31.1998 16.7578 29.4315C16.7578 27.6211 18.2317 26.1893 20 26.1893C21.7683 26.1893 23.2422 27.6632 23.2422 29.4315C23.2422 31.2422 21.8104 32.6737 20 32.6737Z"
            fill="url(#paint0_linear_58_10770)" />
        <defs>
            <linearGradient id="paint0_linear_58_10770" x1="6" y1="2" x2="39.0808" y2="30.1911"
                gradientUnits="userSpaceOnUse">
                <stop stop-color="#E3AA02" />
                <stop offset="1" stop-color="#BE7200" />
            </linearGradient>
        </defs>
    </symbol>
    <!-- ****************************************************** -->


    <symbol id="exclamation-yellow" viewBox="0 0 22 22">
        <path d="M9.91675 5.88439H12.1138V11.3768H9.91675V5.88439Z" fill="url(#paint0_linear_527_635)"
            fill-opacity="0.7" />
        <path
            d="M12.1136 15.0384C12.1136 15.645 11.6217 16.1367 11.0151 16.1367C10.4084 16.1367 9.9165 15.645 9.9165 15.0384C9.9165 14.4315 10.4084 13.9398 11.0151 13.9398C11.6217 13.9398 12.1136 14.4315 12.1136 15.0384Z"
            fill="url(#paint1_linear_527_635)" fill-opacity="0.7" />
        <path
            d="M11.0152 0.0258179C8.10197 0.0258179 5.30778 1.18308 3.24806 3.24326C1.18789 5.30317 0.0306228 8.09737 0.0306228 11.0104C0.000228854 12.7651 0.422682 14.4979 1.25739 16.0415L0.158844 19.0478C-0.0329715 19.5745 -0.0158603 20.1545 0.206096 20.6692C0.428048 21.1838 0.8385 21.5942 1.35316 21.8162C1.86782 22.0382 2.44785 22.055 2.97453 21.8635L5.98077 20.7649C7.52525 21.6014 9.25928 22.0251 11.0155 21.9952C13.9287 21.9952 16.7229 20.838 18.7827 18.7778C20.8428 16.7179 22.0001 13.9237 22.0001 11.0106C22.0001 8.09754 20.8428 5.30315 18.7827 3.24343C16.7227 1.18325 13.9285 0.025992 11.0155 0.025992L11.0152 0.0258179ZM11.0152 19.7985C9.31037 19.8498 7.63636 19.3346 6.25509 18.334L2.22745 19.7985L3.69196 15.7706V15.7708C2.69123 14.3896 2.17606 12.7156 2.22745 11.0107C2.22745 8.68001 3.15332 6.44467 4.80124 4.79675C6.44915 3.14883 8.68456 2.22297 11.0152 2.22297C13.3458 2.22297 15.5812 3.14883 17.2291 4.79675C18.877 6.44467 19.8029 8.68008 19.8029 11.0107C19.8029 13.3413 18.877 15.5767 17.2291 17.2246C15.5812 18.8725 13.3458 19.7984 11.0152 19.7984L11.0152 19.7985Z"
            fill="url(#paint2_linear_527_635)" fill-opacity="0.7" />
        <defs>
            <linearGradient id="paint0_linear_527_635" x1="10.2463" y1="6.15901" x2="13.0564" y2="7.11695"
                gradientUnits="userSpaceOnUse">
                <stop stop-color="#E3AA02" />
                <stop offset="1" stop-color="#BE7200" />
            </linearGradient>
            <linearGradient id="paint1_linear_527_635" x1="10.2461" y1="14.0497" x2="12.0629" y2="15.5982"
                gradientUnits="userSpaceOnUse">
                <stop stop-color="#E3AA02" />
                <stop offset="1" stop-color="#BE7200" />
            </linearGradient>
            <linearGradient id="paint2_linear_527_635" x1="3.32243" y1="1.12436" x2="21.4931" y2="16.6113"
                gradientUnits="userSpaceOnUse">
                <stop stop-color="#E3AA02" />
                <stop offset="1" stop-color="#BE7200" />
            </linearGradient>
        </defs>
    </symbol>
    <symbol id="edit" viewBox="0 0 15 15">
        <path
            d="M0 12.5019C0 13.1507 0.257671 13.7729 0.71646 14.2317C1.17525 14.6905 1.7975 14.9482 2.44631 14.9482H11.2357C11.8845 14.9482 12.5067 14.6905 12.9655 14.2317C13.4243 13.7729 13.6821 13.1507 13.6821 12.5019V9.671C13.6821 9.42138 13.5489 9.19063 13.3326 9.06572C13.1163 8.94091 12.8498 8.94091 12.6336 9.06572C12.4174 9.19065 12.2842 9.42138 12.2842 9.671V12.5019C12.2842 12.7799 12.1738 13.0466 11.9771 13.2432C11.7805 13.4398 11.5138 13.5502 11.2357 13.5502H2.44635C2.16832 13.5502 1.90163 13.4398 1.70502 13.2432C1.50841 13.0466 1.39798 12.7799 1.39798 12.5019V3.71251C1.39798 3.43436 1.50842 3.16767 1.70502 2.97106C1.90162 2.77445 2.16832 2.66402 2.44635 2.66402H5.2772C5.52683 2.66402 5.75758 2.5308 5.88249 2.31458C6.0073 2.09835 6.0073 1.83189 5.88249 1.61556C5.75755 1.39933 5.52683 1.26611 5.2772 1.26611H2.44635C1.79754 1.26611 1.17531 1.52391 0.716497 1.9827C0.257714 2.44148 3.73758e-05 3.06374 3.73758e-05 3.71255L0 12.5019Z" />
        <path
            d="M14.3643 0.584563C13.9849 0.209998 13.4733 0 12.9401 0C12.407 0 11.8955 0.210014 11.516 0.584563L4.96329 7.13726C4.87858 7.22502 4.81837 7.3335 4.78863 7.45185L4.2294 9.4263C4.14189 9.74249 4.20746 10.0812 4.40638 10.3419C4.60543 10.6028 4.91491 10.7553 5.24291 10.7544L5.52252 10.7194L7.51454 10.1602C7.63278 10.1305 7.74125 10.0702 7.82901 9.98553L14.3642 3.43284C14.7388 3.05341 14.9488 2.54183 14.9488 2.00869C14.9488 1.47555 14.7388 0.964001 14.3642 0.584538L14.3643 0.584563ZM13.3682 1.58063C13.4815 1.69789 13.5447 1.85452 13.5447 2.01748C13.5447 2.18045 13.4815 2.33707 13.3682 2.45433H13.3508L12.4771 1.58063H12.4945C12.6118 1.4674 12.7684 1.40414 12.9314 1.40414C13.0943 1.40414 13.251 1.4674 13.3682 1.58063ZM6.95531 8.86723L5.73218 9.19927L6.08162 7.99354L11.481 2.57664L12.3547 3.45034L6.95531 8.86723Z" />
    </symbol>
    <symbol id="cancel-application" viewBox="0 0 19 20">
        <path
            d="M17.9164 14.9982L16.3096 13.3914L17.9056 11.7954C18.1119 11.5782 18.1119 11.3719 17.9056 11.1548L17.2649 10.5141C17.0477 10.3078 16.8414 10.3078 16.6243 10.5141L15.0283 12.1101L13.4323 10.5141C13.2151 10.3078 13.0088 10.3078 12.7918 10.5141L12.1512 11.1547C11.934 11.3719 11.934 11.5782 12.1512 11.7952L13.7472 13.3913L12.4987 14.6507L12.1621 14.9872C11.9449 15.2045 11.9449 15.4108 12.1621 15.6278L12.7919 16.2576C13.0091 16.4748 13.2154 16.4748 13.4325 16.2576L15.0285 14.6616L16.6245 16.2576C16.8417 16.4748 17.048 16.4748 17.265 16.2576L17.9056 15.617C18.1227 15.4216 18.1227 15.2044 17.9164 14.9982Z" />
        <path
            d="M15.2436 9.31114C14.8539 9.31114 14.5291 8.9864 14.5291 8.59658V2.14396C14.5291 1.45099 14.4857 1.4078 13.8145 1.4078H2.1435C1.75382 1.4078 1.45052 1.71093 1.45052 2.10077V16.9331C1.45052 17.5178 1.53707 17.6043 2.12173 17.6043H13.7494C14.1391 17.6043 14.464 17.9075 14.464 18.2973C14.464 18.687 14.1393 19.0119 13.7494 19.0119H2.03512C0.974075 19.0119 0.259484 18.5139 0.0646451 17.6261C0.0212964 17.4095 0.0212963 17.1931 0.0212963 16.9764C0.0215984 12.0608 0.0433483 7.1239 0 2.20865C0 1.45072 0.173244 0.84447 0.649631 0.433023C0.974366 0.129888 1.42914 0 1.86217 0H14.1395C14.5943 0 15.0273 0.151645 15.3738 0.454792C15.8501 0.887815 16.0016 1.51583 16.0016 2.27361C15.9583 4.54723 15.98 6.3877 15.98 8.57466C15.98 8.98595 15.6551 9.31083 15.2437 9.31083L15.2436 9.31114Z" />
        <path d="M12.4987 8V9.40737H3.64258V8H12.4987Z" />
        <path d="M3.64258 5.40737V4H12.4987V5.40737H3.64258Z" />
    </symbol>

    <symbol id="upload" viewBox="0 0 30 29">
        <path
            d="M15.4805 21.8502C15.1305 21.8502 14.7946 21.7112 14.5471 21.4635C14.2996 21.216 14.1606 20.8803 14.1606 20.5304V0.731445H16.8006L16.8004 20.5304C16.8004 20.8804 16.6614 21.216 16.4139 21.4635C16.1664 21.7112 15.8305 21.8502 15.4805 21.8502H15.4805Z"
            fill="currentColor" />
        <path
            d="M24.7194 28.4502H6.2408C4.84051 28.4502 3.49746 27.8938 2.50752 26.9037C1.51734 25.9137 0.960938 24.5707 0.960938 23.1704V15.2508C0.960938 13.8505 1.51734 12.5077 2.50752 11.5175C3.49746 10.5274 4.84051 9.97119 6.2408 9.97119C6.59081 9.97119 6.92646 10.1102 7.17395 10.3579C7.42166 10.6054 7.56064 10.941 7.56064 11.291C7.56064 11.6413 7.42166 11.9769 7.17395 12.2244C6.92646 12.4719 6.59079 12.6111 6.2408 12.6111C5.54054 12.6111 4.86924 12.8891 4.37404 13.3843C3.87907 13.8793 3.60087 14.5508 3.60087 15.2508V23.1704C3.60087 23.8706 3.87907 24.5419 4.37404 25.0371C4.86924 25.5321 5.54054 25.8103 6.2408 25.8103H24.7194C25.4197 25.8103 26.091 25.5321 26.5862 25.0371C27.0811 24.5419 27.3593 23.8706 27.3593 23.1704V15.2508C27.3593 14.5508 27.0811 13.8793 26.5862 13.3843C26.091 12.8891 25.4197 12.6111 24.7194 12.6111C24.3694 12.6111 24.0337 12.4719 23.7863 12.2244C23.5385 11.9769 23.3996 11.6413 23.3996 11.291C23.3996 10.941 23.5385 10.6054 23.7863 10.3579C24.0337 10.1102 24.3694 9.97119 24.7194 9.97119C26.1197 9.97119 27.4627 10.5274 28.4527 11.5175C29.4429 12.5077 29.9993 13.8505 29.9993 15.2508V23.1704C29.9993 24.5707 29.4429 25.9137 28.4527 26.9037C27.4627 27.8938 26.1197 28.4502 24.7194 28.4502Z"
            fill="currentColor" />
        <path
            d="M19.2197 6.28833L15.6822 2.75106C15.5706 2.64699 15.3978 2.64699 15.2863 2.75106L11.7488 6.28833C11.5015 6.53428 11.1669 6.67216 10.8183 6.67216C10.4696 6.67216 10.135 6.53428 9.88777 6.28833C9.63785 6.04063 9.49731 5.70319 9.49731 5.35122C9.49731 4.99944 9.63785 4.662 9.88777 4.41411L13.4253 0.876615V0.876836C13.9719 0.331925 14.7124 0.0258789 15.4842 0.0258789C16.2561 0.0258789 16.9965 0.331925 17.5432 0.876836L21.0807 4.41434V4.41411C21.3306 4.66204 21.4712 4.99948 21.4712 5.35122C21.4712 5.70323 21.3306 6.04068 21.0807 6.28833C20.8334 6.53428 20.4989 6.67216 20.1502 6.67216C19.8015 6.67216 19.467 6.53428 19.2197 6.28833Z"
            fill="currentColor" />
    </symbol>

    <symbol id="arrow-right" viewBox="0 0 17 13">
        <path
            d="M15.8456 5.86038L11.6869 0.81072C11.3427 0.425536 10.7911 0.388862 10.429 0.685363C10.0668 0.981864 10.0071 1.5811 10.3038 1.94328L13.2651 5.53574L0.89118 5.53574C0.399082 5.53574 0 5.93481 0 6.42692C0 6.91903 0.399066 7.3181 0.89118 7.3181L13.2651 7.3181L10.3038 10.9106C10.0073 11.2725 10.074 11.8635 10.429 12.1685C10.7951 12.483 11.3904 12.4053 11.6869 12.0431L15.8456 6.99346C16.1164 6.61283 16.0932 6.22911 15.8456 5.86088V5.86038Z" />
    </symbol>

    <symbol id="show-password" viewBox="0 0 15 8">
        <path
            d="M5.6391 0.147211C3.95989 0.501243 1.92508 1.54535 0.56391 2.75144L0 3.2511L0.553647 3.67325L1.12274 3.1785C3.9441 0.725456 7.3385 0.026657 10.4983 1.24844C11.6825 1.70624 12.6275 2.28241 14.184 3.49526L14.496 3.73833L15 3.24761L14.718 3.0271C12.4775 1.27503 10.7942 0.442383 8.80444 0.101758C7.91718 -0.0501877 6.47695 -0.0294777 5.6391 0.147211ZM6.27835 2.99593C4.26327 3.96646 4.29925 6.78281 6.33902 7.7371C7.9456 8.48876 9.85974 7.5578 10.2298 5.84486C10.3318 5.37202 10.3194 5.1611 10.157 4.6197C9.67816 3.0223 7.83 2.24873 6.27835 2.99593ZM8.32128 3.51357C9.50718 3.99524 9.97241 5.42456 9.2709 6.43063C8.52395 7.50188 7.14857 7.66156 6.15338 6.79261C5.59026 6.30092 5.42989 5.90492 5.49361 5.16306C5.60752 3.83534 7.04662 2.99593 8.32128 3.51357Z"
            fill="currentColor" />
        <path
            d="M5.6391 0.147211C3.95989 0.501243 1.92508 1.54535 0.56391 2.75144L0 3.2511L0.553647 3.67325L1.12274 3.1785C3.9441 0.725456 7.3385 0.026657 10.4983 1.24844C11.6825 1.70624 12.6275 2.28241 14.184 3.49526L14.496 3.73833L15 3.24761L14.718 3.0271C12.4775 1.27503 10.7942 0.442383 8.80444 0.101758C7.91718 -0.0501877 6.47695 -0.0294777 5.6391 0.147211ZM6.27835 2.99593C4.26327 3.96646 4.29925 6.78281 6.33902 7.7371C7.9456 8.48876 9.85974 7.5578 10.2298 5.84486C10.3318 5.37202 10.3194 5.1611 10.157 4.6197C9.67816 3.0223 7.83 2.24873 6.27835 2.99593ZM8.32128 3.51357C9.50718 3.99524 9.97241 5.42456 9.2709 6.43063C8.52395 7.50188 7.14857 7.66156 6.15338 6.79261C5.59026 6.30092 5.42989 5.90492 5.49361 5.16306C5.60752 3.83534 7.04662 2.99593 8.32128 3.51357Z"
            stroke="currentColor" />
    </symbol>
    <symbol id="hide-password" viewBox="0 0 15 4">
        <path
            d="M5.6391 3.59107C3.95989 3.23704 1.92508 2.19293 0.56391 0.986842L0 0.487185L0.553647 0.0650284L1.12274 0.55978C3.9441 3.01283 7.3385 3.71162 10.4983 2.48984C11.6825 2.03204 12.6275 1.45587 14.184 0.243026L14.496 -4.48227e-05L15 0.490673L14.718 0.711181C12.4775 2.46325 10.7942 3.2959 8.80444 3.63652C7.91718 3.78847 6.47695 3.76776 5.6391 3.59107Z"
            fill="currentColor" />
        <path
            d="M5.6391 3.59107C3.95989 3.23704 1.92508 2.19293 0.56391 0.986842L0 0.487185L0.553647 0.0650284L1.12274 0.55978C3.9441 3.01283 7.3385 3.71162 10.4983 2.48984C11.6825 2.03204 12.6275 1.45587 14.184 0.243026L14.496 -4.48227e-05L15 0.490673L14.718 0.711181C12.4775 2.46325 10.7942 3.2959 8.80444 3.63652C7.91718 3.78847 6.47695 3.76776 5.6391 3.59107Z"
            stroke="currentColor" />
    </symbol>

    <symbol id="excel-green" viewBox="0 0 55 63">
        <path
            d="M37.8608 53.8511V0H33.5126C22.345 2.01746 11.2069 3.88377 0 5.82089V56.7555C11.0262 58.7027 22.194 60.6497 33.291 62.6671H37.8305V53.8506L37.8608 53.8511ZM21.4372 42.6729C20.0467 39.699 18.8273 36.6472 17.7857 33.5333C16.7766 36.4888 15.3847 39.2733 14.2447 42.1692C12.6508 42.1692 11.057 42.0784 9.46309 42.0179C11.3292 38.3559 13.135 34.6636 15.0617 31.0319C13.4277 27.279 11.6212 23.6071 9.93669 19.8846L14.7592 19.6115C15.8387 22.4566 17.0294 25.2707 17.9273 28.1869C18.9364 25.09 20.3183 22.1336 21.5491 19.188C23.1972 19.074 24.8479 18.9727 26.5024 18.8854C24.5644 22.867 22.6109 26.8583 20.6406 30.8603C22.6581 34.8952 24.6755 38.9809 26.6939 43.0567C24.9382 42.9153 23.1929 42.8048 21.4372 42.6732V42.6729Z"
            fill="url(#paint0_linear_654_1498)" />
        <path
            d="M28.3476 6.98047V10.8444H36.0651V16.5444H28.3476V19.6716H36.0651V25.3716H28.3476V28.4988H36.0651V34.1889H28.3476V37.316H36.0651V42.9652H28.3476V46.274H36.0651V51.7924H28.3476V55.6564H55.0002V6.98083L28.3476 6.98047ZM49.1185 51.8333H37.9008V10.8451H49.1185V51.8333Z"
            fill="url(#paint1_linear_654_1498)" />
        <defs>
            <linearGradient id="paint0_linear_654_1498" x1="3.38064e-08" y1="31.3455" x2="83.678" y2="31.3455"
                gradientUnits="userSpaceOnUse">
                <stop stop-color="#139B48" />
                <stop offset="0.927083" stop-color="#19CE5F" stop-opacity="0.0729167" />
                <stop offset="1" stop-color="#1AD261" stop-opacity="0" />
            </linearGradient>
            <linearGradient id="paint1_linear_654_1498" x1="54.9449" y1="31.3453" x2="34.4082" y2="31.3453"
                gradientUnits="userSpaceOnUse">
                <stop stop-color="#139B48" />
                <stop offset="1" stop-color="#1AD261" stop-opacity="0" />
            </linearGradient>
        </defs>
    </symbol>

    <symbol id="delete" width="14" height="16" viewBox="0 0 14 16">
        <path
            d="M9.39677 1.87108C9.55773 1.87108 9.71221 1.80712 9.82615 1.69317C9.93996 1.57936 10.0039 1.42489 10.0039 1.26378C10.0097 1.10112 9.94759 0.943261 9.83237 0.828177C9.71729 0.71296 9.55943 0.650834 9.39676 0.656621H4.49816C4.3355 0.650832 4.17764 0.71296 4.06255 0.828177C3.94733 0.943254 3.88521 1.10111 3.891 1.26378C3.891 1.42489 3.95496 1.57936 4.06877 1.69317C4.18271 1.80711 4.33718 1.87108 4.49815 1.87108H9.39677Z"
            fill="#DB2D2D" fill-opacity="0.5" />
        <path
            d="M5.52953 12.4575C5.68894 12.4526 5.84045 12.3869 5.95327 12.2741C6.06609 12.1613 6.13175 12.0098 6.13683 11.8503V7.49828C6.13683 7.33731 6.07273 7.18284 5.95892 7.06889C5.84498 6.95509 5.6905 6.89098 5.52953 6.89098C5.36673 6.88533 5.20901 6.94746 5.09378 7.06268C4.97871 7.17775 4.91658 7.33561 4.92223 7.49828V11.8503C4.92223 12.0113 4.98619 12.1658 5.10014 12.2797C5.21394 12.3935 5.36842 12.4575 5.52953 12.4575V12.4575Z"
            fill="#DB2D2D" fill-opacity="0.5" />
        <path
            d="M8.35731 12.4575C8.51841 12.4575 8.67288 12.3935 8.78669 12.2797C8.90064 12.1658 8.9646 12.0113 8.9646 11.8503V7.49828C8.97025 7.33562 8.90812 7.17776 8.79305 7.06268C8.67783 6.94746 8.52011 6.88533 8.3573 6.89098C8.19633 6.89098 8.04186 6.95508 7.92791 7.06889C7.81411 7.18283 7.75 7.33731 7.75 7.49828V11.8503C7.75508 12.0098 7.82074 12.1613 7.93356 12.2741C8.04637 12.3869 8.19788 12.4526 8.35731 12.4575V12.4575Z"
            fill="#DB2D2D" fill-opacity="0.5" />
        <path
            d="M13.2791 3.32848H0.607532C0.444871 3.32283 0.287011 3.38496 0.171927 3.50004C0.0567097 3.61525 -0.00541609 3.77297 0.000371009 3.93578C0.000371009 4.09689 0.0643326 4.25122 0.178141 4.36517C0.292086 4.47912 0.446559 4.54308 0.607528 4.54308H1.51839L1.51853 14.1784C1.51853 14.6615 1.71042 15.125 2.05213 15.4665C2.39369 15.8082 2.85712 16.0001 3.34029 16.0001H10.5465C11.0297 16.0001 11.4931 15.8082 11.8347 15.4665C12.1764 15.125 12.3683 14.6615 12.3683 14.1784V4.54308H13.2793C13.4402 4.54308 13.5947 4.47912 13.7087 4.36517C13.8225 4.25123 13.8864 4.09689 13.8864 3.93578C13.8922 3.77298 13.8301 3.61526 13.7149 3.50004C13.5998 3.38496 13.4419 3.32283 13.2793 3.32848H13.2791ZM11.1537 14.1783C11.1593 14.3411 11.0972 14.4988 10.9821 14.614C10.8669 14.7291 10.7092 14.7912 10.5464 14.7856H3.34015C3.17735 14.7912 3.01963 14.7291 2.9044 14.614C2.78932 14.4988 2.7272 14.3411 2.73284 14.1783V4.54301H11.1536L11.1537 14.1783Z"
            fill="#DB2D2D" fill-opacity="0.5" />
    </symbol>

    <symbol id="triangle-down" viewBox="0 0 10 6">
        <polygon points="0,0 10,0 5,6 0,0"></polygon>
    </symbol>

    <symbol id="add-circle" viewBox="0 0 13 13">
        <path
            d="M6.5 0.8125C9.64112 0.8125 12.1875 3.35888 12.1875 6.5C12.1875 9.64112 9.64112 12.1875 6.5 12.1875C3.35888 12.1875 0.8125 9.64112 0.8125 6.5C0.8125 3.35888 3.35888 0.8125 6.5 0.8125ZM6.5 0C2.91014 0 0 2.91014 0 6.5C0 10.0899 2.91014 13 6.5 13C10.0899 13 13 10.0899 13 6.5C13 2.91014 10.0899 0 6.5 0Z" />
        <path
            d="M5.98003 7.01997V8.86887C5.98003 9.15605 6.2128 9.38892 6.49999 9.38892C6.78717 9.38892 7.01994 9.15605 7.01994 8.86887V7.01997H8.86884C9.15602 7.01997 9.38889 6.7872 9.38889 6.50001C9.38889 6.21283 9.15602 5.98006 8.86884 5.98006H7.01994V4.13116C7.01994 3.84398 6.78717 3.61111 6.49999 3.61111C6.2128 3.61111 5.98003 3.84398 5.98003 4.13116V5.98006H4.13113C3.84395 5.98006 3.61108 6.21283 3.61108 6.50001C3.61108 6.7872 3.84395 7.01997 4.13113 7.01997H5.98003Z" />
    </symbol>

    <symbol id="search" viewBox="0 0 14 14" fill="none">
        <path
            d="M5.89848 0.508301C3.05277 0.508301 0.734375 2.82668 0.734375 5.67241C0.734375 8.51813 3.05277 10.8365 5.89848 10.8365C7.12923 10.8365 8.25973 10.4015 9.14831 9.67905L12.643 13.1737C12.8516 13.3823 13.1912 13.3824 13.3998 13.1737C13.6084 12.9651 13.6084 12.6311 13.3998 12.4225L9.90512 8.92781C10.629 8.03878 11.0626 6.90453 11.0626 5.67241C11.0626 2.82668 8.7442 0.508301 5.89848 0.508301ZM5.89848 1.57674C8.16677 1.57674 9.99416 3.40411 9.99416 5.67241C9.99416 7.94068 8.16677 9.76809 5.89848 9.76809C3.6302 9.76809 1.80281 7.94068 1.80281 5.67241C1.80281 3.40411 3.6302 1.57674 5.89848 1.57674Z"
            fill="currentColor" />
    </symbol>

    <symbol id="copy" viewBox="0 0 12 15" fill="none">
        <path
            d="M2.8478 12.0492C3.06489 13.2238 4.09258 14.1177 5.32903 14.1177H9.37324C10.7669 14.1177 11.9009 12.9837 11.9009 11.59L11.9009 5.52371C11.9009 4.28726 11.007 3.25958 9.83236 3.04248C9.61527 1.86787 8.58758 0.97397 7.35113 0.97397L3.30692 0.97397C1.91326 0.97397 0.779282 2.10795 0.779282 3.50161L0.779282 9.56793C0.779282 10.8044 1.67318 11.8321 2.8478 12.0492ZM10.8898 5.52371V11.59C10.8898 12.4263 10.2095 13.1066 9.37324 13.1066H5.32903C4.49273 13.1066 3.81244 12.4263 3.81244 11.59L3.81244 5.52371C3.81244 4.68742 4.49273 4.00713 5.32903 4.00713H9.37324C10.2095 4.00713 10.8898 4.68742 10.8898 5.52371ZM1.79034 3.50161C1.79034 2.66531 2.47063 1.98502 3.30692 1.98502L7.35113 1.98502C8.0093 1.98502 8.56518 2.40891 8.77453 2.99608H5.32903C3.93537 2.99608 2.80139 4.13006 2.80139 5.52371L2.80139 10.9914C2.21422 10.782 1.79034 10.2261 1.79034 9.56793L1.79034 3.50161Z" />
    </symbol>

    <symbol id="asc" viewBox="0 0 448 512">
        <path
            d="M34.9 289.5l-22.2-22.2c-9.4-9.4-9.4-24.6 0-33.9L207 39c9.4-9.4 24.6-9.4 33.9 0l194.3 194.3c9.4 9.4 9.4 24.6 0 33.9L413 289.4c-9.5 9.5-25 9.3-34.3-.4L264 168.6V456c0 13.3-10.7 24-24 24h-32c-13.3 0-24-10.7-24-24V168.6L69.2 289.1c-9.3 9.8-24.8 10-34.3.4z" />
    </symbol>

    <symbol id="desc" viewBox="0 0 448 512">
        <path
            d="M413.1 222.5l22.2 22.2c9.4 9.4 9.4 24.6 0 33.9L241 473c-9.4 9.4-24.6 9.4-33.9 0L12.7 278.6c-9.4-9.4-9.4-24.6 0-33.9l22.2-22.2c9.5-9.5 25-9.3 34.3.4L184 343.4V56c0-13.3 10.7-24 24-24h32c13.3 0 24 10.7 24 24v287.4l114.8-120.5c9.3-9.8 24.8-10 34.3-.4z" />
    </symbol>

    <symbol id="email-sent" viewBox="0 0 56 41">
        <path
            d="M24.12 23.1227L0.0054935 10.0451C0.0376577 8.41878 0.743345 6.86917 1.97084 5.72938C3.19835 4.58908 4.84979 3.9493 6.57032 3.94651H39.1155C38.5937 5.62449 38.5648 7.40468 39.0315 9.09671C39.4976 10.7887 40.4423 12.3293 41.7639 13.5531L24.12 23.1227ZM24.9222 26.2024C24.4253 26.4737 23.8137 26.4737 23.3169 26.2024L0 13.5569V34.7903C0.00192024 36.437 0.694641 38.0152 1.92651 39.1795C3.15829 40.3434 4.82844 40.9981 6.57011 41H41.669C43.4107 40.9982 45.0809 40.3434 46.3126 39.1795C47.5444 38.0152 48.2372 36.437 48.2392 34.7903V16.3146C47.0198 16.2347 45.8254 15.948 44.7132 15.4688L24.9222 26.2024ZM56 6.64753C56.0014 8.41181 55.2612 10.1048 53.9425 11.3531C52.6238 12.6018 50.8341 13.3038 48.9677 13.3052C47.1008 13.3065 45.3101 12.6068 43.9889 11.3604C42.6683 10.1139 41.9252 8.42226 41.9242 6.65764C41.9227 4.89336 42.6625 3.20087 43.9817 1.95212C45.3004 0.70383 47.0901 0.00139395 48.9565 0C50.822 0.00272262 52.6102 0.703784 53.9299 1.94933C55.2501 3.19541 55.9942 4.8843 56 6.64753ZM53.1609 3.77111H53.1613C52.4893 3.22342 51.4753 3.29148 50.8921 3.92357L47.8273 7.26778L47.1067 6.353V6.35255C46.8533 6.02629 46.4716 5.80894 46.0473 5.74995C45.6234 5.69051 45.1918 5.79442 44.8485 6.03764C44.1376 6.54268 43.9887 7.49467 44.5154 8.17213L46.4404 10.6115C46.7361 10.9782 47.1893 11.2014 47.677 11.2214H47.7308C48.2007 11.221 48.6477 11.0285 48.9564 10.6928L53.333 5.92557V5.92602C53.6139 5.61928 53.7536 5.21952 53.7214 4.81521C53.6897 4.41091 53.4886 4.0352 53.1631 3.77111H53.1609Z"
            fill="url(#paint0_linear_2_131)" />
        <defs>
            <linearGradient id="paint0_linear_2_131" x1="7.3209e-07" y1="6.22785" x2="44.63" y2="43.4425"
                gradientUnits="userSpaceOnUse">
                <stop stop-color="#18BA57" />
                <stop offset="1" stop-color="#104424" />
            </linearGradient>
        </defs>
    </symbol>

    <symbol id="info" viewBox="0 0 512 512">
        <path
            d="M256 8C119.043 8 8 119.083 8 256c0 136.997 111.043 248 248 248s248-111.003 248-248C504 119.083 392.957 8 256 8zm0 110c23.196 0 42 18.804 42 42s-18.804 42-42 42-42-18.804-42-42 18.804-42 42-42zm56 254c0 6.627-5.373 12-12 12h-88c-6.627 0-12-5.373-12-12v-24c0-6.627 5.373-12 12-12h12v-64h-12c-6.627 0-12-5.373-12-12v-24c0-6.627 5.373-12 12-12h64c6.627 0 12 5.373 12 12v100h12c6.627 0 12 5.373 12 12v24z" />
    </symbol>


    <symbol id="angle-right" viewBox="0 0 256 512">
        <path
            d="M224.3 273l-136 136c-9.4 9.4-24.6 9.4-33.9 0l-22.6-22.6c-9.4-9.4-9.4-24.6 0-33.9l96.4-96.4-96.4-96.4c-9.4-9.4-9.4-24.6 0-33.9L54.3 103c9.4-9.4 24.6-9.4 33.9 0l136 136c9.5 9.4 9.5 24.6.1 34z" />
    </symbol>
</svg>