<svg style="position:absolute;z-index:-1;left:0;top:0;width:0;height:0;overflow:hidden">
    <symbol id="user" viewBox="0 0 1792 1792">
        <path
            d="M1536 1399q0 109-62.5 187t-150.5 78h-854q-88 0-150.5-78t-62.5-187q0-85 8.5-160.5t31.5-152 58.5-131 94-89 134.5-34.5q131 128 313 128t313-128q76 0 134.5 34.5t94 89 58.5 131 31.5 152 8.5 160.5zm-256-887q0 159-112.5 271.5t-271.5 112.5-271.5-112.5-112.5-271.5 112.5-271.5 271.5-112.5 271.5 112.5 112.5 271.5z" />
    </symbol>
    <symbol id="address" viewBox="0 0 448 512">
        <path d="M436 160c6.6 0 12-5.4 12-12v-40c0-6.6-5.4-12-12-12h-20V48c0-26.5-21.5-48-48-48H48C21.5 0 0 21.5 0
        48v416c0 26.5 21.5 48 48 48h320c26.5 0 48-21.5 48-48v-48h20c6.6 0 12-5.4
        12-12v-40c0-6.6-5.4-12-12-12h-20v-64h20c6.6 0 12-5.4 12-12v-40c0-6.6-5.4-12-12-12h-20v-64h20zm-68
        304H48V48h320v416zM208 256c35.3 0 64-28.7 64-64s-28.7-64-64-64-64 28.7-64 64 28.7 64 64 64zm-89.6 128h179.2c12.4
        0 22.4-8.6 22.4-19.2v-19.2c0-31.8-30.1-57.6-67.2-57.6-10.8 0-18.7 8-44.8 8-26.9 0-33.4-8-44.8-8-37.1 0-67.2
        25.8-67.2 57.6v19.2c0 10.6 10 19.2 22.4 19.2z"/>
    </symbol>
    <symbol id="key" viewBox="0 0 639.000000 301.000000">
        <g transform="translate(0.000000,301.000000) scale(0.100000,-0.100000)" stroke="none">
            <path d="M1290 2991 c-147 -22 -328 -83 -475 -161 -407 -215 -685 -588 -782
-1050 -25 -119 -25 -415 0 -555 54 -301 217 -600 446 -817 197 -187 391 -295
671 -371 113 -31 119 -32 335 -32 192 0 233 3 320 23 248 56 410 132 600 281
130 102 293 283 360 399 l19 32 306 0 305 0 235 235 c129 129 240 235 245 235
6 0 27 -16 46 -36 61 -65 319 -304 327 -304 9 0 29 18 215 200 l138 134 179
-179 180 -180 185 185 185 185 184 -184 184 -183 185 183 c230 229 439 448
477 501 62 85 43 113 -279 440 l-264 268 -1509 0 -1508 0 -35 53 c-62 92 -68
101 -136 182 -161 192 -382 347 -624 435 -33 12 -112 35 -175 52 -103 26 -135
30 -300 33 -102 2 -210 0 -240 -4z m-297 -1123 c111 -47 188 -131 227 -249 47
-138 5 -287 -112 -401 -80 -77 -142 -101 -263 -101 -127 -1 -189 24 -275 112
-86 88 -115 159 -115 281 0 77 4 92 36 160 54 112 128 178 244 217 62 20 188
11 258 -19z" />
        </g>
    </symbol>
    <symbol id="download-new" viewBox="0 0 24 24">
    <path fill="none" d="M0 0h24v24H0z"/><path d="M2.859 2.877l12.57-1.795a.5.5 0 0 1 .571.495v20.846a.5.5 0 0 1-.57.495L2.858 21.123a1 1 0 0 1-.859-.99V3.867a1 1 0 0 1 .859-.99zM4 4.735v14.53l10 1.429V3.306L4 4.735zM17 19h3V5h-3V3h4a1 1 0 0 1 1 1v16a1 1 0 0 1-1 1h-4v-2zm-6.8-7l2.8 4h-2.4L9 13.714 7.4 16H5l2.8-4L5 8h2.4L9 10.286 10.6 8H13l-2.8 4z"/>
    </symbol>
    <symbol id="eye" viewBox="0 0 1792 1792">
        <path
            d="M1664 960q-152-236-381-353 61 104 61 225 0 185-131.5 316.5t-316.5 131.5-316.5-131.5-131.5-316.5q0-121 61-225-229 117-381 353 133 205 333.5 326.5t434.5 121.5 434.5-121.5 333.5-326.5zm-720-384q0-20-14-34t-34-14q-125 0-214.5 89.5t-89.5 214.5q0 20 14 34t34 14 34-14 14-34q0-86 61-147t147-61q20 0 34-14t14-34zm848 384q0 34-20 69-140 230-376.5 368.5t-499.5 138.5-499.5-139-376.5-368q-20-35-20-69t20-69q140-229 376.5-368t499.5-139 499.5 139 376.5 368q20 35 20 69z" />
    </symbol>
    <symbol id="eye-slash" viewBox="0 0 1792 1792">
        <path
            d="M555 1335l78-141q-87-63-136-159t-49-203q0-121 61-225-229 117-381 353 167 258 427 375zm389-759q0-20-14-34t-34-14q-125 0-214.5 89.5t-89.5 214.5q0 20 14 34t34 14 34-14 14-34q0-86 61-147t147-61q20 0 34-14t14-34zm363-191q0 7-1 9-106 189-316 567t-315 566l-49 89q-10 16-28 16-12 0-134-70-16-10-16-28 0-12 44-87-143-65-263.5-173t-208.5-245q-20-31-20-69t20-69q153-235 380-371t496-136q89 0 180 17l54-97q10-16 28-16 5 0 18 6t31 15.5 33 18.5 31.5 18.5 19.5 11.5q16 10 16 27zm37 447q0 139-79 253.5t-209 164.5l280-502q8 45 8 84zm448 128q0 35-20 69-39 64-109 145-150 172-347.5 267t-419.5 95l74-132q212-18 392.5-137t301.5-307q-115-179-282-294l63-112q95 64 182.5 153t144.5 184q20 34 20 69z" />
    </symbol>
    <symbol id="logout" viewBox="0 0 330 330">
        <g>
            <path d="M51.213,180h173.785c8.284,0,15-6.716,15-15s-6.716-15-15-15H51.213l19.394-19.393
		c5.858-5.857,5.858-15.355,0-21.213c-5.856-5.858-15.354-5.858-21.213,0L4.397,154.391c-0.348,0.347-0.676,0.71-0.988,1.09
		c-0.076,0.093-0.141,0.193-0.215,0.288c-0.229,0.291-0.454,0.583-0.66,0.891c-0.06,0.09-0.109,0.185-0.168,0.276
		c-0.206,0.322-0.408,0.647-0.59,0.986c-0.035,0.067-0.064,0.138-0.099,0.205c-0.189,0.367-0.371,0.739-0.53,1.123
		c-0.02,0.047-0.034,0.097-0.053,0.145c-0.163,0.404-0.314,0.813-0.442,1.234c-0.017,0.053-0.026,0.108-0.041,0.162
		c-0.121,0.413-0.232,0.83-0.317,1.257c-0.025,0.127-0.036,0.258-0.059,0.386c-0.062,0.354-0.124,0.708-0.159,1.069
		C0.025,163.998,0,164.498,0,165s0.025,1.002,0.076,1.498c0.035,0.366,0.099,0.723,0.16,1.08c0.022,0.124,0.033,0.251,0.058,0.374
		c0.086,0.431,0.196,0.852,0.318,1.269c0.015,0.049,0.024,0.101,0.039,0.15c0.129,0.423,0.28,0.836,0.445,1.244
		c0.018,0.044,0.031,0.091,0.05,0.135c0.16,0.387,0.343,0.761,0.534,1.13c0.033,0.065,0.061,0.133,0.095,0.198
		c0.184,0.341,0.387,0.669,0.596,0.994c0.056,0.088,0.104,0.181,0.162,0.267c0.207,0.309,0.434,0.603,0.662,0.895
		c0.073,0.094,0.138,0.193,0.213,0.285c0.313,0.379,0.641,0.743,0.988,1.09l44.997,44.997C52.322,223.536,56.161,225,60,225
		s7.678-1.464,10.606-4.394c5.858-5.858,5.858-15.355,0-21.213L51.213,180z" />
            <path d="M207.299,42.299c-40.944,0-79.038,20.312-101.903,54.333c-4.62,6.875-2.792,16.195,4.083,20.816
		c6.876,4.62,16.195,2.794,20.817-4.083c17.281-25.715,46.067-41.067,77.003-41.067C258.414,72.299,300,113.884,300,165
		s-41.586,92.701-92.701,92.701c-30.845,0-59.584-15.283-76.878-40.881c-4.639-6.865-13.961-8.669-20.827-4.032
		c-6.864,4.638-8.67,13.962-4.032,20.826c22.881,33.868,60.913,54.087,101.737,54.087C274.956,287.701,330,232.658,330,165
		S274.956,42.299,207.299,42.299z" />
        </g>
    </symbol>
    <symbol id="plus-circle" viewBox="0 0 1792 1792">
        <path
            d="M1344 960v-128q0-26-19-45t-45-19h-256v-256q0-26-19-45t-45-19h-128q-26 0-45 19t-19 45v256h-256q-26 0-45 19t-19 45v128q0 26 19 45t45 19h256v256q0 26 19 45t45 19h128q26 0 45-19t19-45v-256h256q26 0 45-19t19-45zm320-64q0 209-103 385.5t-279.5 279.5-385.5 103-385.5-103-279.5-279.5-103-385.5 103-385.5 279.5-279.5 385.5-103 385.5 103 279.5 279.5 103 385.5z" />
    </symbol>
    <symbol id="close-circle" viewBox="0 0 1792 1792">
        <path
            d="M1277 1122q0-26-19-45l-181-181 181-181q19-19 19-45 0-27-19-46l-90-90q-19-19-46-19-26 0-45 19l-181 181-181-181q-19-19-45-19-27 0-46 19l-90 90q-19 19-19 46 0 26 19 45l181 181-181 181q-19 19-19 45 0 27 19 46l90 90q19 19 46 19 26 0 45-19l181-181 181 181q19 19 45 19 27 0 46-19l90-90q19-19 19-46zm387-226q0 209-103 385.5t-279.5 279.5-385.5 103-385.5-103-279.5-279.5-103-385.5 103-385.5 279.5-279.5 385.5-103 385.5 103 279.5 279.5 103 385.5z" />
    </symbol>
    <symbol id="ellipsis" viewBox="0 0 1792 1792">
        <path
            d="M576 736v192q0 40-28 68t-68 28h-192q-40 0-68-28t-28-68v-192q0-40 28-68t68-28h192q40 0 68 28t28 68zm512 0v192q0 40-28 68t-68 28h-192q-40 0-68-28t-28-68v-192q0-40 28-68t68-28h192q40 0 68 28t28 68zm512 0v192q0 40-28 68t-68 28h-192q-40 0-68-28t-28-68v-192q0-40 28-68t68-28h192q40 0 68 28t28 68z" />
    </symbol>
    <symbol id="comments" viewBox="0 0 45.495 45.494">
        <path
            d="M40.022,6.393C40.022,2.862,37.161,0,33.629,0H11.864C8.333,0,5.471,2.862,5.471,6.393v32.708   c0,3.53,2.861,6.393,6.393,6.393h21.765c3.531,0,6.394-2.862,6.394-6.393L40.022,6.393L40.022,6.393z M20.373,32.092H14.36   c-1.365,0-2.473-1.094-2.473-2.459s1.107-2.459,2.473-2.459h6.013c1.365,0,2.473,1.094,2.473,2.459   C22.846,30.999,21.738,32.092,20.373,32.092z M28.39,22.255H14.36c-1.365,0-2.473-1.093-2.473-2.459   c0-1.366,1.107-2.459,2.473-2.459h14.029c1.365,0,2.472,1.093,2.472,2.459C30.861,21.162,29.754,22.255,28.39,22.255z    M31.061,12.419H14.36c-1.365,0-2.473-1.155-2.473-2.521s1.107-2.521,2.473-2.521h16.701c1.365,0,2.473,1.155,2.473,2.521   S32.427,12.419,31.061,12.419z" />
    </symbol>
    <symbol id="excel" viewBox="0 0 500 500">
        <path fill="currentColor"
            d="M224 136V0H24C10.7 0 0 10.7 0 24v464c0 13.3 10.7 24 24 24h336c13.3 0 24-10.7 24-24V160H248c-13.2 0-24-10.8-24-24zm60.1 106.5L224 336l60.1 93.5c5.1 8-.6 18.5-10.1 18.5h-34.9c-4.4 0-8.5-2.4-10.6-6.3C208.9 405.5 192 373 192 373c-6.4 14.8-10 20-36.6 68.8-2.1 3.9-6.1 6.3-10.5 6.3H110c-9.5 0-15.2-10.5-10.1-18.5l60.3-93.5-60.3-93.5c-5.2-8 .6-18.5 10.1-18.5h34.8c4.4 0 8.5 2.4 10.6 6.3 26.1 48.8 20 33.6 36.6 68.5 0 0 6.1-11.7 36.6-68.5 2.1-3.9 6.2-6.3 10.6-6.3H274c9.5-.1 15.2 10.4 10.1 18.4zM384 121.9v6.1H256V0h6.1c6.4 0 12.5 2.5 17 7l97.9 98c4.5 4.5 7 10.6 7 16.9z" />
    </symbol>
    <symbol id="excel-download" viewBox="0 0 500 500">
        <path fill="currentColor"
            d="M224 136V0H24C10.7 0 0 10.7 0 24v464c0 13.3 10.7 24 24 24h336c13.3 0 24-10.7 24-24V160H248c-13.2 0-24-10.8-24-24zm76.45 211.36l-96.42 95.7c-6.65 6.61-17.39 6.61-24.04 0l-96.42-95.7C73.42 337.29 80.54 320 94.82 320H160v-80c0-8.84 7.16-16 16-16h32c8.84 0 16 7.16 16 16v80h65.18c14.28 0 21.4 17.29 11.27 27.36zM377 105L279.1 7c-4.5-4.5-10.6-7-17-7H256v128h128v-6.1c0-6.3-2.5-12.4-7-16.9z" />
    </symbol>
    <symbol id="key" viewBox="0 0 500 500">
        <path fill="currentColor"
            d="M512 176.001C512 273.203 433.202 352 336 352c-11.22 0-22.19-1.062-32.827-3.069l-24.012 27.014A23.999 23.999 0 0 1 261.223 384H224v40c0 13.255-10.745 24-24 24h-40v40c0 13.255-10.745 24-24 24H24c-13.255 0-24-10.745-24-24v-78.059c0-6.365 2.529-12.47 7.029-16.971l161.802-161.802C163.108 213.814 160 195.271 160 176 160 78.798 238.797.001 335.999 0 433.488-.001 512 78.511 512 176.001zM336 128c0 26.51 21.49 48 48 48s48-21.49 48-48-21.49-48-48-48-48 21.49-48 48z" />
    </symbol>
    <symbol id="watch" viewBox="0 0 500 500">
        <path fill="currentColor"
            d="M256 8C119 8 8 119 8 256s111 248 248 248 248-111 248-248S393 8 256 8zm0 448c-110.5 0-200-89.5-200-200S145.5 56 256 56s200 89.5 200 200-89.5 200-200 200zm61.8-104.4l-84.9-61.7c-3.1-2.3-4.9-5.9-4.9-9.7V116c0-6.6 5.4-12 12-12h32c6.6 0 12 5.4 12 12v141.7l66.8 48.6c5.4 3.9 6.5 11.4 2.6 16.8L334.6 349c-3.9 5.3-11.4 6.5-16.8 2.6z">
        </path>
    </symbol>
    <symbol id="download" viewBox="0 0 500 500">
        <path fill="currentColor"
            d="M216 0h80c13.3 0 24 10.7 24 24v168h87.7c17.8 0 26.7 21.5 14.1 34.1L269.7 378.3c-7.5 7.5-19.8 7.5-27.3 0L90.1 226.1c-12.6-12.6-3.7-34.1 14.1-34.1H192V24c0-13.3 10.7-24 24-24zm296 376v112c0 13.3-10.7 24-24 24H24c-13.3 0-24-10.7-24-24V376c0-13.3 10.7-24 24-24h146.7l49 49c20.1 20.1 52.5 20.1 72.6 0l49-49H488c13.3 0 24 10.7 24 24zm-124 88c0-11-9-20-20-20s-20 9-20 20 9 20 20 20 20-9 20-20zm64 0c0-11-9-20-20-20s-20 9-20 20 9 20 20 20 20-9 20-20z">
        </path>
    </symbol>
    <symbol  id="download11" viewBox="0 0 225.000000 225.000000">
    <g transform="translate(0.000000,225.000000) scale(0.100000,-0.100000)"
fill="#000000" stroke="none">
<path d="M705 2095 c-286 -52 -550 -99 -587 -105 l-68 -12 0 -834 0 -834 23
-5 c23 -5 478 -86 907 -161 140 -24 263 -46 273 -48 16 -4 17 51 17 1045 l0
1049 -22 -1 c-13 -1 -257 -43 -543 -94z m205 -551 c0 -3 -38 -88 -85 -189 -47
-101 -85 -186 -85 -189 0 -3 40 -91 89 -196 l89 -190 -63 0 c-102 0 -104 2
-155 139 -24 67 -47 121 -51 121 -3 0 -26 -53 -51 -117 l-45 -118 -71 -3 c-40
-2 -72 1 -72 6 0 6 36 87 79 182 61 133 78 178 71 194 -4 11 -38 88 -74 170
-36 82 -66 153 -66 158 0 4 33 8 73 8 l73 0 43 -115 c24 -64 48 -112 52 -108
4 4 30 60 56 123 l49 115 64 6 c36 3 68 6 73 7 4 1 7 -1 7 -4z"/>
<path d="M1320 1920 l0 -60 155 0 155 0 0 -110 0 -110 -155 0 -155 0 0 -30 0
-30 155 0 155 0 0 -115 0 -115 -155 0 -155 0 0 -30 0 -30 155 0 155 0 0 -115
0 -115 -155 0 -155 0 0 -30 0 -30 155 0 155 0 0 -110 0 -110 -155 0 -155 0 0
-35 0 -36 155 3 155 3 0 -112 0 -113 -155 0 -155 0 0 -70 0 -70 416 0 c267 0
422 4 435 10 19 10 19 30 19 805 0 775 0 795 -19 805 -13 6 -168 10 -435 10
l-416 0 0 -60z m730 -170 l0 -110 -180 0 -180 0 0 110 0 110 180 0 180 0 0
-110z m0 -285 l0 -115 -180 0 -180 0 0 108 c0 60 3 112 7 115 3 4 84 7 180 7
l173 0 0 -115z m0 -290 l0 -115 -180 0 -180 0 0 115 0 115 180 0 180 0 0 -115z
m0 -285 l0 -110 -180 0 -180 0 0 110 0 110 180 0 180 0 0 -110z m0 -290 l0
-110 -180 0 -180 0 0 110 0 110 180 0 180 0 0 -110z"/>
</g>
    </symbol>
    <symbol id="edit" viewBox="0 0 24 24">
        <path d="M0 0h24v24H0V0z" fill="none"/>
        <path d="M14.06 9.02l.92.92L5.92 19H5v-.92l9.06-9.06M17.66 3c-.25 0-.51.1-.7.29l-1.83 1.83 3.75 3.75 1.83-1.83c.39-.39.39-1.02 0-1.41l-2.34-2.34c-.2-.2-.45-.29-.71-.29zm-3.6 3.19L3 17.25V21h3.75L17.81 9.94l-3.75-3.75z"/>
    </symbol>
    <symbol id="delete" viewBox="0 0 24 24">
            <path d="M0 0h24v24H0V0z" fill="none"/>
            <path d="M16 9v10H8V9h8m-1.5-6h-5l-1 1H5v2h14V4h-3.5l-1-1zM18 7H6v12c0 1.1.9 2 2 2h8c1.1 0 2-.9 2-2V7z"/>
    </symbol>
    <symbol id="info" viewBox="0 0 24 24">
        <path d="M0 0h24v24H0V0z" fill="none"/>
        <path d="M11 7h2v2h-2zm0 4h2v6h-2zm1-9C6.48 2 2 6.48 2 12s4.48 10 10 10 10-4.48 10-10S17.52 2 12 2zm0 18c-4.41 0-8-3.59-8-8s3.59-8 8-8 8 3.59 8 8-3.59 8-8 8z"/>
    </symbol>
    <symbol id="add" viewBox="0 0 24 24">
        <path d="M0 0h24v24H0V0z" fill="none"/>
        <path d="M12 2C6.48 2 2 6.48 2 12s4.48 10 10 10 10-4.48 10-10S17.52 2 12 2zm5 11h-4v4h-2v-4H7v-2h4V7h2v4h4v2z"/>
    </symbol>
</svg>