<svg style="position:absolute;z-index:-1;left:0;top:0;width:0;height:0;overflow:hidden">

    <symbol id="user" viewBox="0 0 18 17">
        <path
            d="M17.3074 14.721C16.9365 12.0086 15.4527 10.1771 12.8562 9.27301C12.6852 9.21331 12.4951 9.25861 12.3693 9.38891C11.5578 10.2235 10.167 10.7105 8.6599 10.7105C7.1531 10.7105 5.762 10.2235 4.9505 9.38891H4.9507C4.825 9.25861 4.6349 9.21331 4.4638 9.27301C1.9137 10.1773 0.406701 12.0087 0.0589005 14.721C-0.00109946 15.1721 0.133801 15.6275 0.429901 15.973C0.739301 16.3278 1.1877 16.531 1.6586 16.5293H15.7076C16.1786 16.531 16.627 16.3278 16.9364 15.973C17.2325 15.6274 17.3673 15.172 17.3073 14.721H17.3074ZM16.2178 15.3702C16.0825 15.5217 15.8876 15.6063 15.6846 15.6021H1.6588C1.4557 15.6063 1.261 15.5217 1.1256 15.3702C0.994001 15.2259 0.9345 15.0301 0.9633 14.837C1.2647 12.6113 2.4703 11.0581 4.5336 10.2467C5.5304 11.1277 7.0605 11.6378 8.6834 11.6378C10.3062 11.6378 11.8132 11.1278 12.8331 10.2467C14.8965 11.0581 16.102 12.6113 16.4034 14.8602C16.4253 15.0457 16.3661 15.2315 16.2411 15.3702H16.2178Z" />
        <path
            d="M8.68374 9.0646C10.8629 9.0646 12.6481 7.0245 12.6481 4.5439C12.6481 2.0634 10.8629 0 8.68374 0C6.50444 0 4.71924 2.0402 4.71924 4.5207C4.71924 7.0012 6.50444 9.0646 8.68374 9.0646ZM8.68374 0.9505C10.3528 0.9505 11.7206 2.5733 11.7206 4.544C11.7206 6.5146 10.3528 8.1374 8.68374 8.1374C7.01454 8.1374 5.64674 6.5146 5.64674 4.544C5.64674 2.5733 7.01454 0.9274 8.68374 0.9274V0.9505Z" />
    </symbol>
    <symbol id="key" viewBox="0 0 13 17">
        <path clip-rule="evenodd"  fill-rule="evenodd"
            d="M3.7143 3.9593C3.7143 2.2701 4.9846 0.9444 6.5 0.9444C8.0154 0.9444 9.2857 2.2701 9.2857 3.9593V5.6187H10.2143V3.9593C10.2143 1.7967 8.5744 0 6.5 0C4.4256 0 2.7857 1.7968 2.7857 3.9593V5.6666H2.3214C1.0394 5.6666 0 6.7237 0 8.0276V14.639C0 15.9429 1.0394 17 2.3214 17H10.6786C11.9606 17 13 15.9429 13 14.639V8.0276C13 6.7237 11.9606 5.6666 10.6786 5.6666H3.7143V3.9593ZM3.2499 6.611H2.3214C1.5522 6.611 0.9285 7.2453 0.9285 8.0276V14.639C0.9285 15.4213 1.5522 16.0556 2.3214 16.0556H10.6786C11.4478 16.0556 12.0715 15.4213 12.0715 14.639V8.0276C12.0715 7.2453 11.4478 6.611 10.6786 6.611H3.2499ZM6.5 9.4225C6.7563 9.4225 6.9643 9.6339 6.9643 9.8946V13.0748C6.9643 13.3357 6.7563 13.547 6.5 13.547C6.2437 13.547 6.0357 13.3357 6.0357 13.0748V9.8946C6.0357 9.6339 6.2437 9.4225 6.5 9.4225Z" />
    </symbol>
    <symbol id="download" viewBox="0 0 16 21">
        <path
            d="M8.0268 15.1208C7.65346 15.1208 7.3335 14.8009 7.3335 14.4275V8.6933C7.3335 8.31997 7.65345 8 8.0268 8C8.40015 8 8.7201 8.31995 8.7201 8.6933V14.4275C8.7201 14.8274 8.40015 15.1208 8.0268 15.1208Z"
            fill="currentColor" />
        <path
            d="M8.0268 15.1208C7.65346 15.1208 7.3335 14.8009 7.3335 14.4275V8.6933C7.3335 8.31997 7.65345 8 8.0268 8C8.40015 8 8.7201 8.31995 8.7201 8.6933V14.4275C8.7201 14.8274 8.40015 15.1208 8.0268 15.1208Z"
            stroke="currentColor" />
        <path
            d="M8.02676 15.1208C7.84001 15.1208 7.65345 15.0408 7.52007 14.9075L5.20006 12.5875C4.93331 12.3207 4.93331 11.8674 5.20006 11.6008C5.46681 11.3341 5.92012 11.3341 6.1867 11.6008L7.99998 13.4141L9.81326 11.6008C10.08 11.3341 10.5333 11.3341 10.7999 11.6008C11.0666 11.8676 11.0666 12.3209 10.7999 12.5875L8.4799 14.9075C8.40009 15.0676 8.21352 15.1208 8.02676 15.1208Z"
            fill="currentColor" />
        <path
            d="M8.02676 15.1208C7.84001 15.1208 7.65345 15.0408 7.52007 14.9075L5.20006 12.5875C4.93331 12.3207 4.93331 11.8674 5.20006 11.6008C5.46681 11.3341 5.92012 11.3341 6.1867 11.6008L7.99998 13.4141L9.81326 11.6008C10.08 11.3341 10.5333 11.3341 10.7999 11.6008C11.0666 11.8676 11.0666 12.3209 10.7999 12.5875L8.4799 14.9075C8.40009 15.0676 8.21352 15.1208 8.02676 15.1208Z"
            stroke="none" />
        <path
            d="M2.19268 0.000224403H11.5686C12.0351 0.000224403 12.4548 0.186789 12.8281 0.513322L15.4869 3.17212C15.8134 3.49865 16 3.96512 16 4.43162V18.7519C16 19.9646 15.0204 20.9443 13.8075 20.9443H2.19245C0.979706 20.9443 0 19.9648 0 18.7519V2.19245C0 0.979706 0.979556 0 2.19245 0L2.19268 0.000224403ZM12.2684 1.63283V3.21884C12.2684 3.54536 12.5015 3.82528 12.8281 3.82528H14.4607L12.2682 1.63283H12.2684ZM14.7874 4.99143H12.8282C11.8487 4.99143 11.0556 4.19843 11.0556 3.21884V1.16633H2.19283C1.63313 1.16633 1.16663 1.63283 1.16663 2.19253V18.752C1.16663 19.3117 1.63313 19.7315 2.19283 19.7315H13.8079C14.3676 19.7315 14.7875 19.3116 14.7875 18.752V4.99121L14.7874 4.99143Z"
            fill="currentColor" />
    </symbol>
    <symbol id="tick-circle" viewBox="0 0 16 16">
        <path fill-rule="evenodd" clip-rule="evenodd"
            d="M8 0C12.4171 0 16 3.58286 16 8C16 12.4171 12.4171 16 8 16C3.58286 16 0 12.4171 0 8C0 3.58286 3.58286 0 8 0ZM7.75458 11.632C7.21472 12.1719 6.42946 12.0737 5.93861 11.4848L2.79746 8.34365C1.66866 7.21485 3.38641 5.49699 4.51521 6.62591L6.92012 8.98171L11.4844 4.41742C12.6132 3.28862 14.3801 5.00636 13.2021 6.13516L7.75415 11.632L7.75458 11.632Z"
            fill="currentColor" />
    </symbol>
    <symbol id="close-circle" viewBox="0 0 16 16">
        <path
            d="M8 0.00014449C5.8782 0.00014449 3.84338 0.842934 2.34314 2.34326C0.842892 3.84358 0 5.87839 0 8.00007C0 10.1218 0.842798 12.1567 2.34314 13.6569C3.84347 15.1571 5.8783 16 8 16C10.1217 16 12.1566 15.1572 13.6569 13.6569C15.1571 12.1566 16 10.1218 16 8.00007C16.0013 6.59536 15.6322 5.21522 14.9302 3.99858C14.2281 2.78194 13.218 1.7718 12.0014 1.06982C10.7847 0.367837 9.40458 -0.0012653 7.99986 3.25888e-06L8 0.00014449ZM10.9106 9.74358C11.1193 9.95207 11.2006 10.256 11.1242 10.541C11.0481 10.8259 10.8254 11.0485 10.5406 11.1247C10.2556 11.201 9.95166 11.1197 9.74314 10.911L7.99995 9.15982L6.25675 10.911C6.04826 11.1197 5.74434 11.201 5.45929 11.1247C5.17445 11.0485 4.95182 10.8259 4.87566 10.541C4.79931 10.256 4.88061 9.9521 5.08929 9.74358L6.84052 8.0004L5.08929 6.25722C4.88208 6.04836 4.8017 5.74519 4.87823 5.46108C4.95476 5.17716 5.17665 4.95526 5.46059 4.87872C5.7447 4.80219 6.04789 4.88258 6.25674 5.08978L7.99993 6.841L9.74313 5.08978C9.89767 4.93378 10.108 4.84606 10.3275 4.84551C10.547 4.84514 10.7577 4.93213 10.913 5.0874C11.0683 5.24266 11.1552 5.45335 11.1549 5.67286C11.1543 5.89236 11.0666 6.10268 10.9106 6.25724L9.15937 8.00042L10.9106 9.74358Z"
            fill="currentColor" />
    </symbol>
    <symbol id="calendar" viewBox="0 0 20 20">
        <path
            d="M17.1226 1.08384H15.0032V0.65887C15.0032 0.484127 14.9353 0.31654 14.8143 0.192978C14.6933 0.069416 14.5292 0 14.3581 0C14.187 0 14.0229 0.069416 13.9019 0.192978C13.7809 0.31654 13.7129 0.484127 13.7129 0.65887V1.08384H6.34194V0.65887C6.34194 0.484127 6.27396 0.31654 6.15297 0.192978C6.03198 0.069416 5.86788 0 5.69677 0C5.52567 0 5.36157 0.069416 5.24058 0.192978C5.11958 0.31654 5.05161 0.484127 5.05161 0.65887V1.08384H2.87742C2.11484 1.08384 1.38344 1.39299 0.843916 1.94336C0.304388 2.49374 0.000854911 3.24032 0 4.01911V17.0647C0.000854911 17.8435 0.304388 18.5901 0.843916 19.1405C1.38344 19.6909 2.11484 20 2.87742 20H17.1226C17.8852 20 18.6166 19.6909 19.1561 19.1405C19.6956 18.5901 19.9991 17.8435 20 17.0647V4.01911C19.9991 3.24032 19.6956 2.49374 19.1561 1.94336C18.6166 1.39299 17.8852 1.08384 17.1226 1.08384ZM1.29032 4.01911C1.29032 3.59011 1.45719 3.17869 1.75423 2.87534C2.05126 2.572 2.45412 2.40158 2.87419 2.40158H5.04839V2.82985C5.04839 3.00459 5.11636 3.17218 5.23735 3.29574C5.35834 3.4193 5.52244 3.48872 5.69355 3.48872C5.86466 3.48872 6.02875 3.4193 6.14975 3.29574C6.27074 3.17218 6.33871 3.00459 6.33871 2.82985V2.40158H13.7129V2.82985C13.7129 3.00459 13.7809 3.17218 13.9019 3.29574C14.0229 3.4193 14.187 3.48872 14.3581 3.48872C14.5292 3.48872 14.6933 3.4193 14.8143 3.29574C14.9353 3.17218 15.0032 3.00459 15.0032 2.82985V2.40158H17.1226C17.3308 2.40115 17.5372 2.44267 17.7297 2.52376C17.9222 2.60486 18.0972 2.72393 18.2446 2.87418C18.392 3.02442 18.509 3.20288 18.5888 3.39934C18.6686 3.59581 18.7097 3.80641 18.7097 4.01911V6.45034H1.29032V4.01911ZM17.1226 18.6823H2.87742C2.66915 18.6827 2.46284 18.6412 2.27031 18.5601C2.07777 18.479 1.90279 18.3599 1.75537 18.2097C1.60795 18.0594 1.49099 17.881 1.4112 17.6845C1.3314 17.488 1.29032 17.2774 1.29032 17.0647V7.76808H18.7097V17.0647C18.7097 17.2774 18.6686 17.488 18.5888 17.6845C18.509 17.881 18.392 18.0594 18.2446 18.2097C18.0972 18.3599 17.9222 18.479 17.7297 18.5601C17.5372 18.6412 17.3308 18.6827 17.1226 18.6823Z"
            fill-opacity="0.8" fill="currentColor" />
    </symbol>
    <symbol id="remove" viewBox="0 0 13 13">
        <path
            d="M6.49821 0C4.7744 0.000453463 3.12144 0.685732 1.90275 1.90493C0.68406 3.12414 -0.000278526 4.77742 8.50388e-08 6.50109C0.00036286 8.22491 0.685384 9.87809 1.90447 11.0968C3.12358 12.3155 4.77672 13.0002 6.50063 13C8.22453 12.9998 9.87763 12.3149 11.0966 11.096C12.3154 9.87695 13.0001 8.22372 13.0001 6.50005C12.9982 4.77642 12.3125 3.12398 11.0935 1.90528C9.87454 0.68673 8.22191 0.00143949 6.49824 0L6.49821 0ZM6.49821 11.8983C5.06715 11.8979 3.69492 11.329 2.68333 10.3169C1.67174 9.30476 1.10353 7.93222 1.10363 6.50132C1.10381 5.07035 1.67236 3.69803 2.68423 2.68621C3.6961 1.67438 5.06845 1.10578 6.49935 1.1056C7.93041 1.10551 9.30288 1.67371 10.3149 2.6853C11.327 3.69699 11.8959 5.06928 11.8964 6.50019C11.8949 7.93144 11.3257 9.30371 10.3137 10.3158C9.30151 11.3278 7.92921 11.897 6.49807 11.8985L6.49821 11.8983Z" />
        <path
            d="M10.0661 5.8562H2.93159C2.70159 5.8562 2.48909 5.97891 2.37409 6.17807C2.25909 6.37722 2.25909 6.62264 2.37409 6.82182C2.48909 7.02101 2.70157 7.14369 2.93159 7.14369H10.0661C10.2961 7.14369 10.5086 7.02098 10.6236 6.82182C10.7386 6.62267 10.7386 6.37725 10.6236 6.17807C10.5086 5.97888 10.2961 5.8562 10.0661 5.8562Z" />


    </symbol>
    <symbol id="view-details" viewBox="0 0 15 15">
        <path
            d="M0 2.4459C0 1.79708 0.257671 1.17486 0.71646 0.716046C1.17525 0.257233 1.7975 -0.000414842 2.44631 -0.000414842H11.2357C11.8845 -0.000414842 12.5067 0.257258 12.9655 0.716046C13.4243 1.17483 13.6821 1.79708 13.6821 2.4459V5.27675C13.6821 5.52638 13.5489 5.75713 13.3326 5.88204C13.1163 6.00685 12.8498 6.00685 12.6336 5.88204C12.4174 5.7571 12.2842 5.52638 12.2842 5.27675V2.4459C12.2842 2.16787 12.1738 1.90118 11.9771 1.70457C11.7805 1.50796 11.5138 1.39753 11.2357 1.39753H2.44635C2.16832 1.39753 1.90163 1.50796 1.70502 1.70457C1.50841 1.90117 1.39798 2.16787 1.39798 2.4459V11.2352C1.39798 11.5134 1.50842 11.7801 1.70502 11.9767C1.90162 12.1733 2.16832 12.2837 2.44635 12.2837H5.2772C5.52683 12.2837 5.75758 12.417 5.88249 12.6332C6.0073 12.8494 6.0073 13.1159 5.88249 13.3322C5.75755 13.5484 5.52683 13.6816 5.2772 13.6816H2.44635C1.79754 13.6816 1.17531 13.4238 0.716497 12.9651C0.257714 12.5063 3.73758e-05 11.884 3.73758e-05 11.2352L0 2.4459Z" />
        <path
            d="M13.7935 13.787C13.4688 14.1117 12.9491 14.1117 12.6243 13.787C11.6716 12.8342 10.7188 11.8815 9.85274 10.9938C9.13819 11.1021 8.55347 11.2969 7.99057 11.2753C6.36659 11.232 5.06733 9.88954 5.00241 8.22221C4.93746 6.59823 6.19337 5.21243 7.90388 5.01759C9.39799 4.84435 10.892 5.97037 11.2168 7.52939C11.3467 8.17902 11.2818 8.82865 11.0002 9.41317C10.8919 9.62976 10.9353 9.7379 11.0868 9.91115C11.9962 10.799 12.884 11.7084 13.7934 12.5962C14.1183 12.9425 14.1183 13.4622 13.7935 13.787L13.7935 13.787ZM8.12041 9.99768C9.18145 9.99768 9.98258 9.21817 10.0042 8.17886C10.0042 7.13955 9.20307 6.31669 8.18537 6.31669C7.14606 6.31669 6.32321 7.11782 6.30159 8.13551C6.27999 9.17482 7.05953 9.99768 8.12041 9.99768Z" />
    </symbol>


    <symbol id="disable" viewBox="0 0 16 16">
        <path
            d="M12.8359 2.20227C11.7844 1.15077 10.4446 0.43459 8.98601 0.144395C7.52741 -0.145597 6.01553 0.00329041 4.64174 0.572277C3.26773 1.14145 2.09339 2.10516 1.26724 3.34161C0.440924 4.57823 0 6.03189 0 7.51908C0 9.00626 0.440924 10.4599 1.26724 11.6965C2.09339 12.933 3.26777 13.8967 4.64174 14.4659C6.01558 15.0349 7.52745 15.1837 8.98601 14.8938C10.4446 14.6036 11.7844 13.8874 12.8359 12.8359C13.7775 11.907 14.4555 10.745 14.8006 9.46832C15.1457 8.19176 15.1457 6.84638 14.8006 5.56983C14.4554 4.2931 13.7775 3.1311 12.8359 2.20226V2.20227ZM3.23091 3.2306V3.23077C4.27869 2.18282 5.67401 1.55496 7.15327 1.4656C8.63232 1.3761 10.0931 1.83156 11.2594 2.74571L2.74841 11.2614C1.83442 10.0952 1.37899 8.63442 1.4683 7.15534C1.5578 5.67612 2.18565 4.2808 3.23364 3.23298L3.23091 3.2306ZM11.8077 11.8074C10.7599 12.8553 9.36478 13.4832 7.88552 13.5726C6.4063 13.6621 4.94566 13.2066 3.77925 12.2924L12.288 3.7789C13.2027 4.94462 13.659 6.40508 13.5705 7.88412C13.482 9.36334 12.855 10.7588 11.8077 11.8073V11.8074Z"
            fill="currentColor" />
    </symbol>

    <symbol id="circle-close-red" viewBox="0 0 31 31" fill="none">
        <path
            d="M20.3747 18.8999C20.0982 18.6234 19.8217 18.3469 19.5427 18.0678L15.1577 13.6828C14.4639 12.989 13.7676 12.2928 13.0738 11.599C12.738 11.2632 12.4047 10.92 12.064 10.5892C12.059 10.5842 12.0541 10.5793 12.0492 10.5743C11.6837 10.2089 11.0122 10.1793 10.6517 10.5743C10.2912 10.9719 10.2616 11.5792 10.6517 11.9718L15.8685 17.1887C16.5623 17.8825 17.2586 18.5787 17.9524 19.2725C18.2882 19.6083 18.6215 19.9515 18.9622 20.2823C18.9672 20.2873 18.9721 20.2922 18.977 20.2972C19.3425 20.6626 20.014 20.6922 20.3745 20.2972C20.735 19.9021 20.7646 19.2922 20.3745 18.8997L20.3747 18.8999Z"
            fill="#C62D2D" />
        <path
            d="M18.9731 10.5745L11.6722 17.8754C11.3364 18.2112 10.9932 18.5445 10.6624 18.8853L10.6476 18.9001C10.2822 19.2655 10.2525 19.9371 10.6476 20.2975C11.0451 20.658 11.6525 20.6876 12.0451 20.2975L19.3459 12.9967C19.6817 12.6609 20.0249 12.3276 20.3558 11.9868L20.3706 11.972C20.736 11.6066 20.7656 10.935 20.3706 10.5745C19.9755 10.2141 19.3657 10.1844 18.9731 10.5745Z"
            fill="#C62D2D" />
        <circle cx="15.4998" cy="15.4995" r="11.114" transform="rotate(-18.1537 15.4998 15.4995)"
            stroke="url(#paint0_linear_201_412)" stroke-width="2.3398" />
        <defs>
            <linearGradient id="paint0_linear_201_412" x1="8.48037" y1="4.97043" x2="24.274" y2="26.0286"
                gradientUnits="userSpaceOnUse">
                <stop stop-color="#C62D2D" />
                <stop offset="1" stop-color="#C62D2D" stop-opacity="0" />
            </linearGradient>
        </defs>
    </symbol>
  <symbol fill="none" xmlns="http://www.w3.org/2000/svg" viewBox="0 0 14 13" id="pen">
    <path d="M12.297 0.706623C11.8384 0.253847 11.22 0 10.5755 0C9.93106 0 9.3127 0.253866 8.854 0.706623L0.933064 8.62756C0.830665 8.73365 0.757879 8.86478 0.721926 9.00784L0.0459299 11.3946C-0.0598599 11.7768 0.0194088 12.1862 0.259867 12.5014C0.500471 12.8167 0.87457 13.001 1.27107 13L1.60906 12.9577L4.01703 12.2817C4.15995 12.2458 4.29108 12.173 4.39716 12.0706L12.297 4.14964C12.7498 3.69098 13.0036 3.07258 13.0036 2.42811C13.0036 1.78365 12.7497 1.16529 12.297 0.706593L12.297 0.706623ZM11.093 1.91068C11.2299 2.05242 11.3063 2.24175 11.3063 2.43874C11.3063 2.63574 11.2299 2.82506 11.093 2.96681H11.0719L10.0158 1.91068H10.0369C10.1786 1.7738 10.3679 1.69734 10.5649 1.69734C10.7619 1.69734 10.9512 1.7738 11.093 1.91068ZM3.34103 10.7188L1.86249 11.1201L2.2849 9.66264L8.81176 3.11466L9.86788 4.17079L3.34103 10.7188Z" fill="#C3C3C3"></path>
  </symbol>

    <!-- Rahul change(icon tick with green background)******** -->
    <symbol id="success-tick-circle" viewBox="0 0 40 40">
        <path
            d="M20 0C8.96946 0 0 8.96947 0 20C0 31.0305 8.96946 40 20 40C31.0305 40 40 31.0305 40 20C40 8.96947 31.0305 0 20 0ZM31.6412 14.4656L18.2061 27.9008C17.8436 28.4541 17.2519 28.7979 16.584 28.7979C15.9544 28.7979 15.3243 28.4733 14.9618 27.9391L8.35867 21.3551C7.99616 20.9926 7.80532 20.5155 7.80532 20.0001C7.80532 19.4846 7.99616 19.0075 8.35867 18.645C9.10285 17.9008 10.3054 17.9008 11.0496 18.645L16.5648 24.1602L28.9497 11.7752C29.2931 11.4127 29.7893 11.2027 30.2856 11.2027C30.801 11.2027 31.2781 11.4127 31.6407 11.7752C32.0032 12.1185 32.194 12.5956 32.194 13.1111C32.194 13.6265 32.0032 14.1036 31.6407 14.4661L31.6412 14.4656Z"
            fill="url(#paint0_linear_57_10205)" />
        <defs>
            <linearGradient id="paint0_linear_57_10205" x1="5.22921e-07" y1="6.07595" x2="39.3703" y2="30.1114"
                gradientUnits="userSpaceOnUse">
                <stop stop-color="#18BA57" />
                <stop offset="1" stop-color="#104424" />
            </linearGradient>
        </defs>
    </symbol>
    <!-- ****************************************************** -->


    <!-- Rahul change(icon alert with yellow background)******** -->
    <symbol id="yellow_alert" viewBox="0 0 40 40">
        <path
            d="M20 0C8.96842 0 0 8.96842 0 20C0 31.0316 8.96842 40 20 40C31.0316 40 40 31.0316 40 20C40 8.96842 31.0316 0 20 0ZM17.3473 9.97895C17.3473 8.50511 18.5682 7.32624 20 7.32624C21.4738 7.32624 22.6527 8.54714 22.6527 9.97895V20.6737C22.6527 22.1475 21.4318 23.3264 20 23.3264C18.5262 23.3264 17.3473 22.1055 17.3473 20.6737V9.97895ZM20 32.6737C18.1896 32.6737 16.7578 31.1998 16.7578 29.4315C16.7578 27.6211 18.2317 26.1893 20 26.1893C21.7683 26.1893 23.2422 27.6632 23.2422 29.4315C23.2422 31.2422 21.8104 32.6737 20 32.6737Z"
            fill="url(#paint0_linear_58_10770)" />
        <defs>
            <linearGradient id="paint0_linear_58_10770" x1="6" y1="2" x2="39.0808" y2="30.1911"
                gradientUnits="userSpaceOnUse">
                <stop stop-color="#E3AA02" />
                <stop offset="1" stop-color="#BE7200" />
            </linearGradient>
        </defs>
    </symbol>
    <!-- ****************************************************** -->


    <symbol id="exclamation-yellow" viewBox="0 0 22 22">
        <path d="M9.91675 5.88439H12.1138V11.3768H9.91675V5.88439Z" fill="url(#paint0_linear_527_635)"
            fill-opacity="0.7" />
        <path
            d="M12.1136 15.0384C12.1136 15.645 11.6217 16.1367 11.0151 16.1367C10.4084 16.1367 9.9165 15.645 9.9165 15.0384C9.9165 14.4315 10.4084 13.9398 11.0151 13.9398C11.6217 13.9398 12.1136 14.4315 12.1136 15.0384Z"
            fill="url(#paint1_linear_527_635)" fill-opacity="0.7" />
        <path
            d="M11.0152 0.0258179C8.10197 0.0258179 5.30778 1.18308 3.24806 3.24326C1.18789 5.30317 0.0306228 8.09737 0.0306228 11.0104C0.000228854 12.7651 0.422682 14.4979 1.25739 16.0415L0.158844 19.0478C-0.0329715 19.5745 -0.0158603 20.1545 0.206096 20.6692C0.428048 21.1838 0.8385 21.5942 1.35316 21.8162C1.86782 22.0382 2.44785 22.055 2.97453 21.8635L5.98077 20.7649C7.52525 21.6014 9.25928 22.0251 11.0155 21.9952C13.9287 21.9952 16.7229 20.838 18.7827 18.7778C20.8428 16.7179 22.0001 13.9237 22.0001 11.0106C22.0001 8.09754 20.8428 5.30315 18.7827 3.24343C16.7227 1.18325 13.9285 0.025992 11.0155 0.025992L11.0152 0.0258179ZM11.0152 19.7985C9.31037 19.8498 7.63636 19.3346 6.25509 18.334L2.22745 19.7985L3.69196 15.7706V15.7708C2.69123 14.3896 2.17606 12.7156 2.22745 11.0107C2.22745 8.68001 3.15332 6.44467 4.80124 4.79675C6.44915 3.14883 8.68456 2.22297 11.0152 2.22297C13.3458 2.22297 15.5812 3.14883 17.2291 4.79675C18.877 6.44467 19.8029 8.68008 19.8029 11.0107C19.8029 13.3413 18.877 15.5767 17.2291 17.2246C15.5812 18.8725 13.3458 19.7984 11.0152 19.7984L11.0152 19.7985Z"
            fill="url(#paint2_linear_527_635)" fill-opacity="0.7" />
        <defs>
            <linearGradient id="paint0_linear_527_635" x1="10.2463" y1="6.15901" x2="13.0564" y2="7.11695"
                gradientUnits="userSpaceOnUse">
                <stop stop-color="#E3AA02" />
                <stop offset="1" stop-color="#BE7200" />
            </linearGradient>
            <linearGradient id="paint1_linear_527_635" x1="10.2461" y1="14.0497" x2="12.0629" y2="15.5982"
                gradientUnits="userSpaceOnUse">
                <stop stop-color="#E3AA02" />
                <stop offset="1" stop-color="#BE7200" />
            </linearGradient>
            <linearGradient id="paint2_linear_527_635" x1="3.32243" y1="1.12436" x2="21.4931" y2="16.6113"
                gradientUnits="userSpaceOnUse">
                <stop stop-color="#E3AA02" />
                <stop offset="1" stop-color="#BE7200" />
            </linearGradient>
        </defs>
    </symbol>
    <symbol id="edit" viewBox="0 0 15 15">
        <path
            d="M14.428 0.571798C14.0572 0.205499 13.5569 0 13.0356 0C12.5143 0 12.0141 0.205502 11.6434 0.571798L6.15256 6.06017C6.08212 6.1325 6.02849 6.21946 5.99566 6.31489L5.03474 9.09828C4.96579 9.30665 5.00068 9.53553 5.12871 9.71383C5.25661 9.89226 5.46234 9.99863 5.68189 10L5.89761 9.96076L8.66266 9.01993C8.75814 8.98698 8.84514 8.93352 8.91764 8.8631L14.4085 3.37473H14.4083C14.7834 3.00598 14.9962 2.50325 15 1.97737C15.0036 1.45153 14.7978 0.945746 14.428 0.571816L14.428 0.571798ZM13.4475 2.39465L8.07435 7.76541L6.78005 8.21621L7.23105 6.92249L12.6042 1.55172C12.7175 1.44275 12.8686 1.38177 13.0258 1.38177C13.1831 1.38177 13.3342 1.44275 13.4475 1.55172C13.5565 1.66494 13.6174 1.81602 13.6174 1.97312C13.6174 2.13022 13.5565 2.2813 13.4475 2.39451V2.39465Z" />
        <path
            d="M0 12.5014C0 13.1502 0.257671 13.7724 0.71646 14.2312C1.17525 14.69 1.7975 14.9477 2.44631 14.9477H11.2357C11.8845 14.9477 12.5067 14.69 12.9655 14.2312C13.4243 13.7724 13.6821 13.1502 13.6821 12.5014V9.67051C13.6821 9.42089 13.5489 9.19014 13.3326 9.06523C13.1163 8.94042 12.8498 8.94042 12.6336 9.06523C12.4174 9.19017 12.2842 9.42089 12.2842 9.67051V12.5014C12.2842 12.7794 12.1738 13.0461 11.9771 13.2427C11.7805 13.4393 11.5138 13.5497 11.2357 13.5497H2.44635C2.16832 13.5497 1.90163 13.4393 1.70502 13.2427C1.50841 13.0461 1.39798 12.7794 1.39798 12.5014V3.71202C1.39798 3.43387 1.50842 3.16718 1.70502 2.97057C1.90162 2.77396 2.16832 2.66353 2.44635 2.66353H5.2772C5.52683 2.66353 5.75758 2.53031 5.88249 2.31409C6.0073 2.09786 6.0073 1.8314 5.88249 1.61507C5.75755 1.39884 5.52683 1.26562 5.2772 1.26562H2.44635C1.79754 1.26562 1.17531 1.52342 0.716497 1.98221C0.257714 2.44099 3.73758e-05 3.06325 3.73758e-05 3.71206L0 12.5014Z" />
    </symbol>
    <symbol id="cancel-application" viewBox="0 0 14 14">
        <path
            d="M0 11.2357C0 11.8846 0.257671 12.5068 0.71646 12.9656C1.17525 13.4244 1.7975 13.6821 2.44631 13.6821H11.2357C11.8845 13.6821 12.5067 13.4244 12.9655 12.9656C13.4243 12.5068 13.6821 11.8846 13.6821 11.2357V8.40489C13.6821 8.15526 13.5489 7.92451 13.3326 7.79961C13.1163 7.67479 12.8498 7.67479 12.6336 7.79961C12.4174 7.92454 12.2842 8.15526 12.2842 8.40489V11.2357C12.2842 11.5138 12.1738 11.7805 11.9771 11.9771C11.7805 12.1737 11.5138 12.2841 11.2357 12.2841H2.44635C2.16832 12.2841 1.90163 12.1737 1.70502 11.9771C1.50841 11.7805 1.39798 11.5138 1.39798 11.2357V2.4464C1.39798 2.16825 1.50842 1.90155 1.70502 1.70494C1.90162 1.50834 2.16832 1.39791 2.44635 1.39791H5.2772C5.52683 1.39791 5.75758 1.26469 5.88249 1.04846C6.0073 0.832233 6.0073 0.565779 5.88249 0.349446C5.75755 0.133216 5.52683 0 5.2772 0H2.44635C1.79754 0 1.17531 0.257793 0.716497 0.716584C0.257714 1.17537 3.73758e-05 1.79762 3.73758e-05 2.44643L0 11.2357Z"
            fill="currentColor" />
        <path
            d="M11.9281 3.42274L10.3213 5.02953L11.9173 6.62554C12.1236 6.84274 12.1236 7.04904 11.9173 7.26611L11.2766 7.9068C11.0594 8.1131 10.8531 8.1131 10.6361 7.9068L9.04006 6.31079L7.44405 7.9068C7.22685 8.1131 7.02054 8.1131 6.80348 7.9068L6.1629 7.26623C5.9457 7.04902 5.9457 6.84272 6.1629 6.62565L7.75891 5.02964L6.51037 3.77021L6.17381 3.43365C5.95661 3.21644 5.95661 3.01014 6.17381 2.79308L6.80361 2.16328C7.02081 1.94608 7.22711 1.94608 7.44418 2.16328L9.04019 3.75929L10.6362 2.16328C10.8534 1.94608 11.0597 1.94608 11.2768 2.16328L11.9173 2.80386C12.1344 2.99925 12.1344 3.21646 11.9281 3.42274Z"
            fill="#A62E2E" />
    </symbol>

    <symbol id="upload" viewBox="0 0 30 29">
        <path
            d="M15.4805 21.8502C15.1305 21.8502 14.7946 21.7112 14.5471 21.4635C14.2996 21.216 14.1606 20.8803 14.1606 20.5304V0.731445H16.8006L16.8004 20.5304C16.8004 20.8804 16.6614 21.216 16.4139 21.4635C16.1664 21.7112 15.8305 21.8502 15.4805 21.8502H15.4805Z"
            fill="currentColor" />
        <path
            d="M24.7194 28.4502H6.2408C4.84051 28.4502 3.49746 27.8938 2.50752 26.9037C1.51734 25.9137 0.960938 24.5707 0.960938 23.1704V15.2508C0.960938 13.8505 1.51734 12.5077 2.50752 11.5175C3.49746 10.5274 4.84051 9.97119 6.2408 9.97119C6.59081 9.97119 6.92646 10.1102 7.17395 10.3579C7.42166 10.6054 7.56064 10.941 7.56064 11.291C7.56064 11.6413 7.42166 11.9769 7.17395 12.2244C6.92646 12.4719 6.59079 12.6111 6.2408 12.6111C5.54054 12.6111 4.86924 12.8891 4.37404 13.3843C3.87907 13.8793 3.60087 14.5508 3.60087 15.2508V23.1704C3.60087 23.8706 3.87907 24.5419 4.37404 25.0371C4.86924 25.5321 5.54054 25.8103 6.2408 25.8103H24.7194C25.4197 25.8103 26.091 25.5321 26.5862 25.0371C27.0811 24.5419 27.3593 23.8706 27.3593 23.1704V15.2508C27.3593 14.5508 27.0811 13.8793 26.5862 13.3843C26.091 12.8891 25.4197 12.6111 24.7194 12.6111C24.3694 12.6111 24.0337 12.4719 23.7863 12.2244C23.5385 11.9769 23.3996 11.6413 23.3996 11.291C23.3996 10.941 23.5385 10.6054 23.7863 10.3579C24.0337 10.1102 24.3694 9.97119 24.7194 9.97119C26.1197 9.97119 27.4627 10.5274 28.4527 11.5175C29.4429 12.5077 29.9993 13.8505 29.9993 15.2508V23.1704C29.9993 24.5707 29.4429 25.9137 28.4527 26.9037C27.4627 27.8938 26.1197 28.4502 24.7194 28.4502Z"
            fill="currentColor" />
        <path
            d="M19.2197 6.28833L15.6822 2.75106C15.5706 2.64699 15.3978 2.64699 15.2863 2.75106L11.7488 6.28833C11.5015 6.53428 11.1669 6.67216 10.8183 6.67216C10.4696 6.67216 10.135 6.53428 9.88777 6.28833C9.63785 6.04063 9.49731 5.70319 9.49731 5.35122C9.49731 4.99944 9.63785 4.662 9.88777 4.41411L13.4253 0.876615V0.876836C13.9719 0.331925 14.7124 0.0258789 15.4842 0.0258789C16.2561 0.0258789 16.9965 0.331925 17.5432 0.876836L21.0807 4.41434V4.41411C21.3306 4.66204 21.4712 4.99948 21.4712 5.35122C21.4712 5.70323 21.3306 6.04068 21.0807 6.28833C20.8334 6.53428 20.4989 6.67216 20.1502 6.67216C19.8015 6.67216 19.467 6.53428 19.2197 6.28833Z"
            fill="currentColor" />
    </symbol>

    <symbol id="arrow-right" viewBox="0 0 17 13">
        <path
            d="M15.8456 5.86038L11.6869 0.81072C11.3427 0.425536 10.7911 0.388862 10.429 0.685363C10.0668 0.981864 10.0071 1.5811 10.3038 1.94328L13.2651 5.53574L0.89118 5.53574C0.399082 5.53574 0 5.93481 0 6.42692C0 6.91903 0.399066 7.3181 0.89118 7.3181L13.2651 7.3181L10.3038 10.9106C10.0073 11.2725 10.074 11.8635 10.429 12.1685C10.7951 12.483 11.3904 12.4053 11.6869 12.0431L15.8456 6.99346C16.1164 6.61283 16.0932 6.22911 15.8456 5.86088V5.86038Z" />
    </symbol>

    <symbol id="show-password" viewBox="0 0 15 8">
        <path
            d="M5.6391 0.147211C3.95989 0.501243 1.92508 1.54535 0.56391 2.75144L0 3.2511L0.553647 3.67325L1.12274 3.1785C3.9441 0.725456 7.3385 0.026657 10.4983 1.24844C11.6825 1.70624 12.6275 2.28241 14.184 3.49526L14.496 3.73833L15 3.24761L14.718 3.0271C12.4775 1.27503 10.7942 0.442383 8.80444 0.101758C7.91718 -0.0501877 6.47695 -0.0294777 5.6391 0.147211ZM6.27835 2.99593C4.26327 3.96646 4.29925 6.78281 6.33902 7.7371C7.9456 8.48876 9.85974 7.5578 10.2298 5.84486C10.3318 5.37202 10.3194 5.1611 10.157 4.6197C9.67816 3.0223 7.83 2.24873 6.27835 2.99593ZM8.32128 3.51357C9.50718 3.99524 9.97241 5.42456 9.2709 6.43063C8.52395 7.50188 7.14857 7.66156 6.15338 6.79261C5.59026 6.30092 5.42989 5.90492 5.49361 5.16306C5.60752 3.83534 7.04662 2.99593 8.32128 3.51357Z"
            fill="currentColor" />
        <path
            d="M5.6391 0.147211C3.95989 0.501243 1.92508 1.54535 0.56391 2.75144L0 3.2511L0.553647 3.67325L1.12274 3.1785C3.9441 0.725456 7.3385 0.026657 10.4983 1.24844C11.6825 1.70624 12.6275 2.28241 14.184 3.49526L14.496 3.73833L15 3.24761L14.718 3.0271C12.4775 1.27503 10.7942 0.442383 8.80444 0.101758C7.91718 -0.0501877 6.47695 -0.0294777 5.6391 0.147211ZM6.27835 2.99593C4.26327 3.96646 4.29925 6.78281 6.33902 7.7371C7.9456 8.48876 9.85974 7.5578 10.2298 5.84486C10.3318 5.37202 10.3194 5.1611 10.157 4.6197C9.67816 3.0223 7.83 2.24873 6.27835 2.99593ZM8.32128 3.51357C9.50718 3.99524 9.97241 5.42456 9.2709 6.43063C8.52395 7.50188 7.14857 7.66156 6.15338 6.79261C5.59026 6.30092 5.42989 5.90492 5.49361 5.16306C5.60752 3.83534 7.04662 2.99593 8.32128 3.51357Z"
            stroke="currentColor" />
    </symbol>
    <symbol id="hide-password" viewBox="0 0 15 4">
        <path
            d="M5.6391 3.59107C3.95989 3.23704 1.92508 2.19293 0.56391 0.986842L0 0.487185L0.553647 0.0650284L1.12274 0.55978C3.9441 3.01283 7.3385 3.71162 10.4983 2.48984C11.6825 2.03204 12.6275 1.45587 14.184 0.243026L14.496 -4.48227e-05L15 0.490673L14.718 0.711181C12.4775 2.46325 10.7942 3.2959 8.80444 3.63652C7.91718 3.78847 6.47695 3.76776 5.6391 3.59107Z"
            fill="currentColor" />
        <path
            d="M5.6391 3.59107C3.95989 3.23704 1.92508 2.19293 0.56391 0.986842L0 0.487185L0.553647 0.0650284L1.12274 0.55978C3.9441 3.01283 7.3385 3.71162 10.4983 2.48984C11.6825 2.03204 12.6275 1.45587 14.184 0.243026L14.496 -4.48227e-05L15 0.490673L14.718 0.711181C12.4775 2.46325 10.7942 3.2959 8.80444 3.63652C7.91718 3.78847 6.47695 3.76776 5.6391 3.59107Z"
            stroke="currentColor" />
    </symbol>

    <symbol id="excel-green" viewBox="0 0 55 63">
        <path
            d="M37.8608 53.8511V0H33.5126C22.345 2.01746 11.2069 3.88377 0 5.82089V56.7555C11.0262 58.7027 22.194 60.6497 33.291 62.6671H37.8305V53.8506L37.8608 53.8511ZM21.4372 42.6729C20.0467 39.699 18.8273 36.6472 17.7857 33.5333C16.7766 36.4888 15.3847 39.2733 14.2447 42.1692C12.6508 42.1692 11.057 42.0784 9.46309 42.0179C11.3292 38.3559 13.135 34.6636 15.0617 31.0319C13.4277 27.279 11.6212 23.6071 9.93669 19.8846L14.7592 19.6115C15.8387 22.4566 17.0294 25.2707 17.9273 28.1869C18.9364 25.09 20.3183 22.1336 21.5491 19.188C23.1972 19.074 24.8479 18.9727 26.5024 18.8854C24.5644 22.867 22.6109 26.8583 20.6406 30.8603C22.6581 34.8952 24.6755 38.9809 26.6939 43.0567C24.9382 42.9153 23.1929 42.8048 21.4372 42.6732V42.6729Z"
            fill="url(#paint0_linear_654_1498)" />
        <path
            d="M28.3476 6.98047V10.8444H36.0651V16.5444H28.3476V19.6716H36.0651V25.3716H28.3476V28.4988H36.0651V34.1889H28.3476V37.316H36.0651V42.9652H28.3476V46.274H36.0651V51.7924H28.3476V55.6564H55.0002V6.98083L28.3476 6.98047ZM49.1185 51.8333H37.9008V10.8451H49.1185V51.8333Z"
            fill="url(#paint1_linear_654_1498)" />
        <defs>
            <linearGradient id="paint0_linear_654_1498" x1="3.38064e-08" y1="31.3455" x2="83.678" y2="31.3455"
                gradientUnits="userSpaceOnUse">
                <stop stop-color="#139B48" />
                <stop offset="0.927083" stop-color="#19CE5F" stop-opacity="0.0729167" />
                <stop offset="1" stop-color="#1AD261" stop-opacity="0" />
            </linearGradient>
            <linearGradient id="paint1_linear_654_1498" x1="54.9449" y1="31.3453" x2="34.4082" y2="31.3453"
                gradientUnits="userSpaceOnUse">
                <stop stop-color="#139B48" />
                <stop offset="1" stop-color="#1AD261" stop-opacity="0" />
            </linearGradient>
        </defs>
    </symbol>

    <symbol id="delete" viewBox="0 0 14 16">
        <path
            d="M9.39677 1.87108C9.55773 1.87108 9.71221 1.80712 9.82615 1.69317C9.93996 1.57936 10.0039 1.42489 10.0039 1.26378C10.0097 1.10112 9.94759 0.943261 9.83237 0.828177C9.71729 0.71296 9.55943 0.650834 9.39676 0.656621H4.49816C4.3355 0.650832 4.17764 0.71296 4.06255 0.828177C3.94733 0.943254 3.88521 1.10111 3.891 1.26378C3.891 1.42489 3.95496 1.57936 4.06877 1.69317C4.18271 1.80711 4.33718 1.87108 4.49815 1.87108H9.39677Z"
            fill="#DB2D2D" fill-opacity="0.5" />
        <path
            d="M5.52953 12.4575C5.68894 12.4526 5.84045 12.3869 5.95327 12.2741C6.06609 12.1613 6.13175 12.0098 6.13683 11.8503V7.49828C6.13683 7.33731 6.07273 7.18284 5.95892 7.06889C5.84498 6.95509 5.6905 6.89098 5.52953 6.89098C5.36673 6.88533 5.20901 6.94746 5.09378 7.06268C4.97871 7.17775 4.91658 7.33561 4.92223 7.49828V11.8503C4.92223 12.0113 4.98619 12.1658 5.10014 12.2797C5.21394 12.3935 5.36842 12.4575 5.52953 12.4575V12.4575Z"
            fill="#DB2D2D" fill-opacity="0.5" />
        <path
            d="M8.35731 12.4575C8.51841 12.4575 8.67288 12.3935 8.78669 12.2797C8.90064 12.1658 8.9646 12.0113 8.9646 11.8503V7.49828C8.97025 7.33562 8.90812 7.17776 8.79305 7.06268C8.67783 6.94746 8.52011 6.88533 8.3573 6.89098C8.19633 6.89098 8.04186 6.95508 7.92791 7.06889C7.81411 7.18283 7.75 7.33731 7.75 7.49828V11.8503C7.75508 12.0098 7.82074 12.1613 7.93356 12.2741C8.04637 12.3869 8.19788 12.4526 8.35731 12.4575V12.4575Z"
            fill="#DB2D2D" fill-opacity="0.5" />
        <path
            d="M13.2791 3.32848H0.607532C0.444871 3.32283 0.287011 3.38496 0.171927 3.50004C0.0567097 3.61525 -0.00541609 3.77297 0.000371009 3.93578C0.000371009 4.09689 0.0643326 4.25122 0.178141 4.36517C0.292086 4.47912 0.446559 4.54308 0.607528 4.54308H1.51839L1.51853 14.1784C1.51853 14.6615 1.71042 15.125 2.05213 15.4665C2.39369 15.8082 2.85712 16.0001 3.34029 16.0001H10.5465C11.0297 16.0001 11.4931 15.8082 11.8347 15.4665C12.1764 15.125 12.3683 14.6615 12.3683 14.1784V4.54308H13.2793C13.4402 4.54308 13.5947 4.47912 13.7087 4.36517C13.8225 4.25123 13.8864 4.09689 13.8864 3.93578C13.8922 3.77298 13.8301 3.61526 13.7149 3.50004C13.5998 3.38496 13.4419 3.32283 13.2793 3.32848H13.2791ZM11.1537 14.1783C11.1593 14.3411 11.0972 14.4988 10.9821 14.614C10.8669 14.7291 10.7092 14.7912 10.5464 14.7856H3.34015C3.17735 14.7912 3.01963 14.7291 2.9044 14.614C2.78932 14.4988 2.7272 14.3411 2.73284 14.1783V4.54301H11.1536L11.1537 14.1783Z"
            fill="#DB2D2D" fill-opacity="0.5" />
    </symbol>

    <symbol id="triangle-down" viewBox="0 0 10 6">
        <polygon points="0,0 10,0 5,6 0,0"></polygon>
    </symbol>

    <symbol id="add-circle" viewBox="0 0 13 13">
        <path
            d="M6.5 0.8125C9.64112 0.8125 12.1875 3.35888 12.1875 6.5C12.1875 9.64112 9.64112 12.1875 6.5 12.1875C3.35888 12.1875 0.8125 9.64112 0.8125 6.5C0.8125 3.35888 3.35888 0.8125 6.5 0.8125ZM6.5 0C2.91014 0 0 2.91014 0 6.5C0 10.0899 2.91014 13 6.5 13C10.0899 13 13 10.0899 13 6.5C13 2.91014 10.0899 0 6.5 0Z" />
        <path
            d="M5.98003 7.01997V8.86887C5.98003 9.15605 6.2128 9.38892 6.49999 9.38892C6.78717 9.38892 7.01994 9.15605 7.01994 8.86887V7.01997H8.86884C9.15602 7.01997 9.38889 6.7872 9.38889 6.50001C9.38889 6.21283 9.15602 5.98006 8.86884 5.98006H7.01994V4.13116C7.01994 3.84398 6.78717 3.61111 6.49999 3.61111C6.2128 3.61111 5.98003 3.84398 5.98003 4.13116V5.98006H4.13113C3.84395 5.98006 3.61108 6.21283 3.61108 6.50001C3.61108 6.7872 3.84395 7.01997 4.13113 7.01997H5.98003Z" />
    </symbol>

    <symbol id="search" viewBox="0 0 14 14">
        <path
            d="M5.89848 0.508301C3.05277 0.508301 0.734375 2.82668 0.734375 5.67241C0.734375 8.51813 3.05277 10.8365 5.89848 10.8365C7.12923 10.8365 8.25973 10.4015 9.14831 9.67905L12.643 13.1737C12.8516 13.3823 13.1912 13.3824 13.3998 13.1737C13.6084 12.9651 13.6084 12.6311 13.3998 12.4225L9.90512 8.92781C10.629 8.03878 11.0626 6.90453 11.0626 5.67241C11.0626 2.82668 8.7442 0.508301 5.89848 0.508301ZM5.89848 1.57674C8.16677 1.57674 9.99416 3.40411 9.99416 5.67241C9.99416 7.94068 8.16677 9.76809 5.89848 9.76809C3.6302 9.76809 1.80281 7.94068 1.80281 5.67241C1.80281 3.40411 3.6302 1.57674 5.89848 1.57674Z"
            fill="currentColor" />
    </symbol>

    <symbol id="copy" viewBox="0 0 12 15">
        <path
            d="M2.8478 12.0492C3.06489 13.2238 4.09258 14.1177 5.32903 14.1177H9.37324C10.7669 14.1177 11.9009 12.9837 11.9009 11.59L11.9009 5.52371C11.9009 4.28726 11.007 3.25958 9.83236 3.04248C9.61527 1.86787 8.58758 0.97397 7.35113 0.97397L3.30692 0.97397C1.91326 0.97397 0.779282 2.10795 0.779282 3.50161L0.779282 9.56793C0.779282 10.8044 1.67318 11.8321 2.8478 12.0492ZM10.8898 5.52371V11.59C10.8898 12.4263 10.2095 13.1066 9.37324 13.1066H5.32903C4.49273 13.1066 3.81244 12.4263 3.81244 11.59L3.81244 5.52371C3.81244 4.68742 4.49273 4.00713 5.32903 4.00713H9.37324C10.2095 4.00713 10.8898 4.68742 10.8898 5.52371ZM1.79034 3.50161C1.79034 2.66531 2.47063 1.98502 3.30692 1.98502L7.35113 1.98502C8.0093 1.98502 8.56518 2.40891 8.77453 2.99608H5.32903C3.93537 2.99608 2.80139 4.13006 2.80139 5.52371L2.80139 10.9914C2.21422 10.782 1.79034 10.2261 1.79034 9.56793L1.79034 3.50161Z" />
    </symbol>

    <symbol id="asc" viewBox="0 0 448 512">
        <path
            d="M34.9 289.5l-22.2-22.2c-9.4-9.4-9.4-24.6 0-33.9L207 39c9.4-9.4 24.6-9.4 33.9 0l194.3 194.3c9.4 9.4 9.4 24.6 0 33.9L413 289.4c-9.5 9.5-25 9.3-34.3-.4L264 168.6V456c0 13.3-10.7 24-24 24h-32c-13.3 0-24-10.7-24-24V168.6L69.2 289.1c-9.3 9.8-24.8 10-34.3.4z" />
    </symbol>

    <symbol id="desc" viewBox="0 0 448 512">
        <path
            d="M413.1 222.5l22.2 22.2c9.4 9.4 9.4 24.6 0 33.9L241 473c-9.4 9.4-24.6 9.4-33.9 0L12.7 278.6c-9.4-9.4-9.4-24.6 0-33.9l22.2-22.2c9.5-9.5 25-9.3 34.3.4L184 343.4V56c0-13.3 10.7-24 24-24h32c13.3 0 24 10.7 24 24v287.4l114.8-120.5c9.3-9.8 24.8-10 34.3-.4z" />
    </symbol>

    <symbol id="email-sent" viewBox="0 0 56 41">
        <path
            d="M24.12 23.1227L0.0054935 10.0451C0.0376577 8.41878 0.743345 6.86917 1.97084 5.72938C3.19835 4.58908 4.84979 3.9493 6.57032 3.94651H39.1155C38.5937 5.62449 38.5648 7.40468 39.0315 9.09671C39.4976 10.7887 40.4423 12.3293 41.7639 13.5531L24.12 23.1227ZM24.9222 26.2024C24.4253 26.4737 23.8137 26.4737 23.3169 26.2024L0 13.5569V34.7903C0.00192024 36.437 0.694641 38.0152 1.92651 39.1795C3.15829 40.3434 4.82844 40.9981 6.57011 41H41.669C43.4107 40.9982 45.0809 40.3434 46.3126 39.1795C47.5444 38.0152 48.2372 36.437 48.2392 34.7903V16.3146C47.0198 16.2347 45.8254 15.948 44.7132 15.4688L24.9222 26.2024ZM56 6.64753C56.0014 8.41181 55.2612 10.1048 53.9425 11.3531C52.6238 12.6018 50.8341 13.3038 48.9677 13.3052C47.1008 13.3065 45.3101 12.6068 43.9889 11.3604C42.6683 10.1139 41.9252 8.42226 41.9242 6.65764C41.9227 4.89336 42.6625 3.20087 43.9817 1.95212C45.3004 0.70383 47.0901 0.00139395 48.9565 0C50.822 0.00272262 52.6102 0.703784 53.9299 1.94933C55.2501 3.19541 55.9942 4.8843 56 6.64753ZM53.1609 3.77111H53.1613C52.4893 3.22342 51.4753 3.29148 50.8921 3.92357L47.8273 7.26778L47.1067 6.353V6.35255C46.8533 6.02629 46.4716 5.80894 46.0473 5.74995C45.6234 5.69051 45.1918 5.79442 44.8485 6.03764C44.1376 6.54268 43.9887 7.49467 44.5154 8.17213L46.4404 10.6115C46.7361 10.9782 47.1893 11.2014 47.677 11.2214H47.7308C48.2007 11.221 48.6477 11.0285 48.9564 10.6928L53.333 5.92557V5.92602C53.6139 5.61928 53.7536 5.21952 53.7214 4.81521C53.6897 4.41091 53.4886 4.0352 53.1631 3.77111H53.1609Z"
            fill="url(#paint0_linear_2_131)" />
        <defs>
            <linearGradient id="paint0_linear_2_131" x1="7.3209e-07" y1="6.22785" x2="44.63" y2="43.4425"
                gradientUnits="userSpaceOnUse">
                <stop stop-color="#18BA57" />
                <stop offset="1" stop-color="#104424" />
            </linearGradient>
        </defs>
    </symbol>

    <symbol id="info" viewBox="0 0 512 512">
        <path
            d="M256 8C119.043 8 8 119.083 8 256c0 136.997 111.043 248 248 248s248-111.003 248-248C504 119.083 392.957 8 256 8zm0 110c23.196 0 42 18.804 42 42s-18.804 42-42 42-42-18.804-42-42 18.804-42 42-42zm56 254c0 6.627-5.373 12-12 12h-88c-6.627 0-12-5.373-12-12v-24c0-6.627 5.373-12 12-12h12v-64h-12c-6.627 0-12-5.373-12-12v-24c0-6.627 5.373-12 12-12h64c6.627 0 12 5.373 12 12v100h12c6.627 0 12 5.373 12 12v24z" />
    </symbol>

    <symbol id="angle-right" viewBox="0 0 256 512">
        <path
            d="M224.3 273l-136 136c-9.4 9.4-24.6 9.4-33.9 0l-22.6-22.6c-9.4-9.4-9.4-24.6 0-33.9l96.4-96.4-96.4-96.4c-9.4-9.4-9.4-24.6 0-33.9L54.3 103c9.4-9.4 24.6-9.4 33.9 0l136 136c9.5 9.4 9.5 24.6.1 34z" />
    </symbol>

    <symbol id="logout" viewBox="0 0 427 359" fill="none">
        <path
            d="M426.039 179.2C426.039 173.04 423.801 167.438 419.32 163.52L336.442 80.0791C327.481 71.1182 313.481 71.1182 304.52 80.0791C295.559 89.04 295.559 103.04 304.52 112.001L349.321 156.802L127.001 156.798C114.681 156.798 104.603 166.876 104.603 179.196C104.603 191.516 114.681 201.594 127.001 201.594H349.881L305.08 246.395C296.119 255.356 296.119 269.356 305.08 278.317C309.56 282.798 315.158 285.036 320.76 285.036C326.361 285.036 331.959 282.798 336.44 278.317L419.319 195.438C423.803 190.958 426.041 185.36 426.041 179.2L426.039 179.2Z"
            fill="url(#paint0_linear_768_702)" />
        <path
            d="M82.879 44.7999H223.999C236.319 44.7999 246.397 34.7219 246.397 22.4019C246.397 10.0819 236.319 0.00390625 223.999 0.00390625L82.879 0C37.52 0 0 37.523 0 82.883V274.963C0 320.885 37.52 358.404 82.879 358.404H223.999C236.319 358.404 246.397 348.326 246.397 336.006C246.397 323.686 236.319 313.608 223.999 313.608L82.879 313.604C61.598 313.604 44.801 296.245 44.801 275.526V82.8861C44.801 62.1631 62.16 44.8041 82.879 44.8041V44.7999Z"
            fill="url(#paint1_linear_768_702)" />
        <defs>
            <linearGradient id="paint0_linear_768_702" x1="325" y1="179" x2="133.057" y2="175.694"
                gradientUnits="userSpaceOnUse">
                <stop stop-color="#BD1E1E" />
                <stop offset="1" stop-color="#BD1E1E" stop-opacity="0" />
            </linearGradient>
            <linearGradient id="paint1_linear_768_702" x1="19.6426" y1="166" x2="238.193" y2="170.887"
                gradientUnits="userSpaceOnUse">
                <stop stop-color="#BD1E1E" />
                <stop offset="1" stop-color="#BD1E1E" stop-opacity="0" />
            </linearGradient>
        </defs>
    </symbol>

    <symbol id="watch" viewBox="0 0 500 500">
        <path fill="currentColor"
            d="M256 8C119 8 8 119 8 256s111 248 248 248 248-111 248-248S393 8 256 8zm0 448c-110.5 0-200-89.5-200-200S145.5 56 256 56s200 89.5 200 200-89.5 200-200 200zm61.8-104.4l-84.9-61.7c-3.1-2.3-4.9-5.9-4.9-9.7V116c0-6.6 5.4-12 12-12h32c6.6 0 12 5.4 12 12v141.7l66.8 48.6c5.4 3.9 6.5 11.4 2.6 16.8L334.6 349c-3.9 5.3-11.4 6.5-16.8 2.6z">
        </path>
    </symbol>

    <symbol id="comments" viewBox="0 0 45.495 45.494">
        <path
            d="M40.022,6.393C40.022,2.862,37.161,0,33.629,0H11.864C8.333,0,5.471,2.862,5.471,6.393v32.708   c0,3.53,2.861,6.393,6.393,6.393h21.765c3.531,0,6.394-2.862,6.394-6.393L40.022,6.393L40.022,6.393z M20.373,32.092H14.36   c-1.365,0-2.473-1.094-2.473-2.459s1.107-2.459,2.473-2.459h6.013c1.365,0,2.473,1.094,2.473,2.459   C22.846,30.999,21.738,32.092,20.373,32.092z M28.39,22.255H14.36c-1.365,0-2.473-1.093-2.473-2.459   c0-1.366,1.107-2.459,2.473-2.459h14.029c1.365,0,2.472,1.093,2.472,2.459C30.861,21.162,29.754,22.255,28.39,22.255z    M31.061,12.419H14.36c-1.365,0-2.473-1.155-2.473-2.521s1.107-2.521,2.473-2.521h16.701c1.365,0,2.473,1.155,2.473,2.521   S32.427,12.419,31.061,12.419z" />
    </symbol>

    <symbol id="user-search" viewBox="0 0 540 560">
        <path
            d="M230.623 209.66C258.424 209.66 285.088 198.613 304.748 178.957C324.408 159.297 335.451 132.633 335.451 104.828C335.451 77.027 324.408 50.363 304.748 30.703C285.088 11.043 258.424 0 230.623 0C202.818 0 176.154 11.043 156.498 30.703C136.838 50.363 125.791 77.027 125.791 104.828C125.791 132.633 136.838 159.297 156.498 178.957C176.154 198.613 202.818 209.66 230.623 209.66ZM230.623 41.93C247.303 41.93 263.303 48.555 275.096 60.352C286.893 72.145 293.522 88.145 293.522 104.825C293.522 121.509 286.893 137.505 275.096 149.302C263.303 161.099 247.303 167.724 230.623 167.724C213.939 167.724 197.943 161.099 186.146 149.302C174.349 137.505 167.724 121.509 167.724 104.825C167.724 88.145 174.349 72.145 186.146 60.352C197.943 48.555 213.939 41.93 230.623 41.93V41.93ZM464.813 456C484.055 426.836 487.501 390.004 474.004 357.777C460.508 325.55 431.844 302.164 397.563 295.418C363.282 288.668 327.891 299.441 303.188 324.145C278.481 348.852 267.708 384.243 274.458 418.524C281.208 452.805 304.591 481.469 336.817 494.965C369.047 508.461 405.879 505.016 435.044 485.774L509.263 559.993L539.036 530.22L464.813 456ZM377.387 461.242C360.703 461.242 344.707 454.617 332.91 442.82C321.113 431.023 314.488 415.027 314.488 398.343C314.488 381.663 321.113 365.663 332.91 353.87C344.707 342.073 360.703 335.444 377.387 335.444C394.067 335.444 410.067 342.073 421.86 353.87C433.657 365.663 440.282 381.663 440.282 398.343C440.282 415.027 433.657 431.023 421.86 442.82C410.067 454.617 394.067 461.242 377.387 461.242ZM245.087 461.242C252.364 476.922 262.454 491.137 274.86 503.176H0V482.207C0.050781 432.238 16.332 383.637 46.391 343.717C76.45 303.799 118.661 274.725 166.671 260.869C214.683 247.014 265.894 249.123 312.601 266.885C296.882 274.643 282.679 285.151 270.667 297.916C257.507 295.06 244.089 293.584 230.624 293.513C184.226 293.537 139.46 310.65 104.884 341.591C70.31 372.532 48.345 415.13 43.189 461.241L245.087 461.242Z" />
    </symbol>
    <symbol fill="none" xmlns="http://www.w3.org/2000/svg" viewBox="0 0 20 20" id="back-circle">
        <path d="M19 10C19 5.02944 14.9706 0.999999 10 1C5.02944 1 0.999999 5.02944 1 10C1 14.9706 5.02944 19 10 19C14.9706 19 19 14.9706 19 10Z" stroke="#139B48" stroke-width="2" stroke-linecap="round" stroke-linejoin="round"></path>
        <path d="M11 13L8 10L11 7" stroke="#139B48" stroke-width="2" stroke-linecap="round" stroke-linejoin="round"></path>
    </symbol>
</svg>